<?xml version="1.0" standalone="no"?>
<!DOCTYPE svg PUBLIC "-//W3C//DTD SVG 20010904//EN"
 "http://www.w3.org/TR/2001/REC-SVG-20010904/DTD/svg10.dtd">
<svg version="1.0" xmlns="http://www.w3.org/2000/svg"
 width="969.000000pt" height="1280.000000pt" viewBox="0 0 969.000000 1280.000000"
 preserveAspectRatio="xMidYMid meet">
<metadata>
Created by potrace 1.15, written by Peter Selinger 2001-2017
</metadata>
<g transform="translate(0.000000,1280.000000) scale(0.100000,-0.100000)"
fill="#9c27b0" stroke="none">
<path d="M3941 12761 l-94 -38 -74 -102 -74 -102 -48 -792 -48 -792 32 -50
c52 -83 50 -79 27 -73 -14 4 -28 -2 -44 -19 -51 -55 -70 -62 -199 -74 -123
-11 -125 -11 -275 -81 -148 -68 -153 -72 -287 -192 l-136 -123 -86 -165 -85
-166 0 -110 0 -110 28 -11 c27 -11 32 -23 75 -184 25 -95 53 -229 62 -300 l17
-127 -60 -98 c-32 -53 -88 -162 -124 -242 l-65 -145 -5 -213 c-3 -117 -8 -215
-11 -219 -3 -3 -39 23 -79 57 -39 34 -87 72 -105 84 -18 11 -33 29 -33 39 0
13 -6 17 -22 15 -19 -2 -39 -42 -128 -250 l-106 -248 13 -112 c7 -62 22 -214
33 -338 12 -124 37 -310 56 -414 30 -165 42 -206 91 -320 30 -72 58 -135 61
-140 3 -5 1 -6 -5 -3 -13 8 -86 -68 -108 -112 -10 -19 -25 -57 -35 -85 l-17
-50 -105 140 c-124 164 -122 161 -137 244 -20 107 -14 100 -91 100 l-68 0 -72
-81 c-39 -44 -70 -85 -68 -89 7 -18 129 -99 165 -110 l39 -12 44 -131 c33
-102 61 -161 118 -256 75 -123 75 -124 139 -153 47 -21 63 -33 59 -44 -7 -17
-33 -64 -1023 -1839 -803 -1440 -841 -1515 -907 -1795 -19 -80 -58 -208 -86
-285 -70 -189 -96 -360 -79 -510 7 -55 15 -105 18 -112 4 -8 63 37 164 125
145 127 171 155 342 372 165 210 194 253 272 400 47 91 152 287 233 435 252
461 612 1197 970 1983 266 584 346 749 352 733 4 -12 37 -57 74 -101 68 -83
70 -88 104 -252 l11 -57 61 -20 c38 -13 88 -21 128 -21 l66 0 12 106 13 105
-49 57 c-88 103 -130 166 -171 255 -47 102 -84 258 -63 265 16 5 94 87 105
111 5 9 18 21 30 26 14 6 28 28 38 59 10 29 28 58 43 69 19 14 26 27 26 53 0
24 8 42 23 57 34 32 47 60 47 104 0 34 4 40 31 50 25 10 30 16 27 40 -2 23
-16 35 -72 68 -48 27 -82 40 -107 40 l-38 0 -3 118 c-3 103 -1 121 15 134 13
13 17 33 17 96 0 75 3 85 41 156 29 52 64 97 113 143 l71 66 -42 44 c-24 24
-43 47 -43 52 0 4 29 20 64 36 45 21 65 36 69 52 3 13 17 84 32 158 15 74 32
141 39 148 10 10 24 -12 70 -111 l58 -124 -16 -359 c-20 -438 -22 -466 -52
-629 -26 -134 -42 -442 -44 -797 l0 -148 70 -114 c38 -62 70 -120 70 -128 0
-28 -109 -264 -185 -403 -83 -151 -110 -212 -217 -490 -38 -99 -72 -183 -76
-187 -18 -18 -616 -168 -732 -183 -69 -9 -127 -18 -129 -21 -7 -7 -71 -227
-67 -231 2 -2 68 28 147 68 101 51 169 78 229 91 205 46 301 66 295 60 -3 -3
-63 -38 -133 -77 l-127 -70 -25 -64 c-24 -63 -25 -64 -165 -163 -77 -54 -149
-105 -160 -113 -19 -14 -18 -16 29 -60 28 -24 78 -57 113 -72 35 -15 63 -30
63 -34 0 -4 -48 -52 -108 -107 l-107 -100 -165 -61 -165 -61 -61 -115 c-34
-63 -57 -115 -50 -115 7 0 75 11 152 25 76 14 143 25 149 25 5 0 -17 -27 -50
-61 -37 -38 -52 -59 -40 -56 57 16 290 57 355 62 l75 6 43 -66 c24 -37 46 -64
50 -60 3 3 30 63 58 133 l52 127 69 8 c54 6 72 13 88 33 l21 24 49 -50 c27
-27 53 -50 58 -50 4 0 85 79 180 175 l172 175 95 20 c52 12 148 41 214 66 65
25 120 43 123 41 2 -3 -15 -11 -39 -20 -28 -9 -43 -20 -42 -30 1 -9 -2 -15 -6
-12 -4 3 -51 -42 -105 -99 -81 -89 -111 -113 -194 -160 -54 -31 -103 -61 -109
-68 -12 -15 -92 -221 -87 -226 2 -2 52 30 112 71 59 41 146 97 193 124 47 27
123 75 170 106 l85 57 3 -92 3 -92 -64 -65 c-57 -59 -169 -209 -183 -245 -4
-9 28 -28 103 -60 59 -26 113 -53 120 -59 15 -16 74 -157 69 -166 -3 -4 -16
-37 -30 -73 -20 -55 -22 -69 -11 -78 16 -13 115 69 288 239 l107 106 0 -93 0
-93 -74 -117 c-41 -65 -110 -157 -152 -206 -47 -53 -70 -86 -58 -82 11 3 73
21 137 40 115 33 118 35 214 115 64 55 113 107 147 156 28 41 53 74 56 74 3 0
31 -37 63 -82 32 -45 74 -100 93 -122 l35 -40 -5 45 c-3 25 -8 63 -11 85 -4
38 27 -75 40 -143 5 -30 4 -32 -12 -21 -10 6 -58 67 -108 135 -82 112 -110
139 -110 106 0 -25 180 -260 211 -275 l31 -15 7 -159 c3 -87 14 -191 23 -232
18 -86 25 -69 -91 -219 -46 -59 -119 -165 -163 -237 l-81 -130 -17 -133 c-9
-74 -13 -137 -9 -141 5 -4 64 -27 131 -50 122 -43 124 -43 219 -36 l96 8 82
68 81 68 4 -282 4 -282 112 -108 111 -107 186 37 185 38 87 99 c47 54 86 102
86 105 0 44 -60 349 -90 461 -21 80 -48 201 -60 268 l-21 124 44 76 c35 61 50
103 72 202 15 69 31 131 35 139 5 10 15 -6 31 -48 15 -41 29 -65 43 -70 12 -5
75 -11 141 -15 100 -6 136 -3 215 13 93 20 291 98 296 116 4 15 -126 126 -277
237 l-137 100 45 72 c58 90 162 177 320 268 65 36 121 75 126 86 12 26 -10 73
-67 149 l-47 63 -38 200 c-25 134 -34 200 -26 200 6 0 48 -15 93 -33 l81 -33
97 -128 c53 -70 99 -124 104 -120 4 5 43 61 86 124 66 97 257 318 284 328 9 4
105 -132 145 -205 26 -49 55 -70 55 -40 0 17 -66 128 -128 215 -29 39 -52 74
-52 77 0 11 102 55 113 48 7 -4 90 -69 185 -146 165 -133 172 -140 172 -175 0
-31 11 -46 103 -139 l103 -105 70 38 c38 20 101 59 141 85 39 27 76 49 82 49
6 0 72 -18 148 -40 131 -38 145 -45 276 -132 76 -50 141 -96 144 -101 3 -6 23
-143 44 -306 61 -482 72 -561 81 -561 4 0 8 4 8 10 0 13 90 223 100 234 5 5
51 -8 110 -32 l100 -41 95 12 95 11 -22 24 -23 25 25 -14 c19 -11 78 -14 255
-14 l229 0 59 -55 c63 -57 171 -193 186 -232 4 -13 11 -54 15 -93 10 -99 11
-100 77 -150 l59 -46 0 94 0 95 -77 160 c-76 157 -82 166 -252 372 -101 122
-181 210 -191 210 -23 0 -205 161 -203 179 1 9 7 55 14 103 11 74 10 109 -4
229 -15 128 -20 151 -57 227 -22 47 -39 87 -37 89 2 2 65 -99 140 -224 143
-240 188 -342 206 -474 10 -76 28 -93 86 -84 21 3 58 14 82 25 34 15 47 29 72
78 27 53 29 64 22 115 l-8 57 49 16 48 16 1 96 c1 53 4 122 7 152 l7 55 42 3
c46 3 42 -4 58 128 l7 52 -186 313 c-106 180 -190 313 -198 312 -7 -1 -27 22
-45 51 -25 41 -231 325 -285 393 -6 7 -8 13 -6 13 3 0 79 -97 169 -216 l164
-215 153 -115 c136 -103 172 -122 172 -95 0 5 -67 59 -150 121 l-150 112 -222
291 c-179 233 -285 386 -535 771 l-311 480 -418 806 c-326 629 -422 806 -435
803 -14 -4 -13 13 11 139 32 165 121 557 221 973 69 286 70 295 105 640 19
193 48 464 64 604 17 140 30 277 30 305 0 54 -27 286 -34 293 -2 2 -30 -9 -63
-25 -47 -24 -71 -46 -123 -113 -35 -46 -118 -149 -185 -229 -66 -80 -173 -215
-237 -300 -95 -126 -135 -170 -213 -233 -52 -43 -99 -76 -104 -72 -25 15 -192
306 -244 424 -55 123 -61 145 -72 250 -8 64 -23 155 -35 203 l-22 87 20 28
c11 15 29 36 40 47 l21 18 -70 139 -69 139 -93 46 c-50 26 -121 55 -157 64
-58 15 -85 32 -230 145 -91 70 -167 131 -170 135 -3 4 -51 24 -107 44 l-101
38 -97 -21 -96 -21 -122 64 c-67 35 -150 77 -184 95 l-62 31 51 48 50 48 -141
819 c-78 451 -144 827 -147 835 -3 8 -26 47 -52 87 -47 72 -47 72 -157 123
l-110 50 -245 -1 -245 -1 -94 -37z m-81 -91 c-12 -16 -24 -30 -26 -30 -3 0 4
14 16 30 12 17 24 30 26 30 3 0 -4 -13 -16 -30z m-75 -190 c21 -22 37 -40 34
-40 -3 0 -23 18 -44 40 -21 22 -37 40 -34 40 3 0 23 -18 44 -40z m925 -45
c-41 -41 -77 -75 -79 -75 -3 0 28 34 69 75 41 41 77 75 79 75 3 0 -28 -34 -69
-75z m25 -33 l-89 -87 84 93 c45 51 85 90 88 87 4 -3 -34 -45 -83 -93z m-870
-53 c38 -41 37 -41 -15 6 -30 28 -70 62 -87 77 -18 15 -33 30 -33 33 0 10 89
-67 135 -116z m-138 -31 c-2 -18 -4 -6 -4 27 0 33 2 48 4 33 2 -15 2 -42 0
-60z m716 -5 c-7 -2 -21 -2 -30 0 -10 3 -4 5 12 5 17 0 24 -2 18 -5z m-312
-51 c-96 -1 -178 1 -182 5 -5 5 74 6 174 3 l182 -5 -174 -3z m-414 -89 c-3
-10 -5 -4 -5 12 0 17 2 24 5 18 2 -7 2 -21 0 -30z m-20 -330 c-3 -10 -5 -4 -5
12 0 17 2 24 5 18 2 -7 2 -21 0 -30z m1130 -225 c-2 -24 -4 -7 -4 37 0 44 2
63 4 43 2 -21 2 -57 0 -80z m-484 -3 l32 5 -28 -11 c-32 -12 -63 -7 -92 16
-18 14 -17 14 18 1 21 -9 52 -13 70 -11z m-666 -112 c-3 -10 -5 -2 -5 17 0 19
2 27 5 18 2 -10 2 -26 0 -35z m437 -59 c13 -5 16 -20 14 -78 l-2 -71 -3 65
c-3 46 -9 69 -20 78 -18 13 -14 16 11 6z m396 -4 c-8 -5 -19 -10 -25 -10 -5 0
-3 5 5 10 8 5 20 10 25 10 6 0 3 -5 -5 -10z m-50 -20 c-8 -5 -19 -10 -25 -10
-5 0 -3 5 5 10 8 5 20 10 25 10 6 0 3 -5 -5 -10z m-52 -21 c-16 -9 -18 -32
-20 -222 l-1 -212 -9 210 c-7 192 -7 211 9 223 9 6 22 12 27 12 6 0 3 -5 -6
-11z m-741 -96 c-3 -10 -5 -4 -5 12 0 17 2 24 5 18 2 -7 2 -21 0 -30z m-10
-135 c-2 -13 -4 -5 -4 17 -1 22 1 32 4 23 2 -10 2 -28 0 -40z m480 -25 c-2
-16 -4 -3 -4 27 0 30 2 43 4 28 2 -16 2 -40 0 -55z m-490 -170 c-2 -16 -4 -3
-4 27 0 30 2 43 4 28 2 -16 2 -40 0 -55z m1433 -86 c0 -2 -19 -21 -42 -42
l-43 -40 40 43 c36 39 45 47 45 39z m-110 -100 c0 -1 -24 -25 -52 -52 l-53
-50 50 53 c46 48 55 57 55 49z m40 -34 c-8 -3 -26 -15 -40 -27 l-25 -21 24 28
c14 15 32 27 40 26 14 0 14 -1 1 -6z m-853 -40 c-3 -10 -5 -4 -5 12 0 17 2 24
5 18 2 -7 2 -21 0 -30z m-687 -27 c0 -2 -7 -9 -15 -16 -13 -11 -14 -10 -9 4 5
14 24 23 24 12z m1390 1 c0 -1 -26 -27 -57 -57 l-58 -55 55 58 c50 53 60 62
60 54z m-1315 -17 c3 -6 -1 -7 -9 -4 -18 7 -21 14 -7 14 6 0 13 -4 16 -10z
m1365 7 c0 -2 -10 -12 -22 -23 l-23 -19 19 23 c18 21 26 27 26 19z m-1080 -27
c6 -11 8 -20 6 -20 -3 0 -10 9 -16 20 -6 11 -8 20 -6 20 3 0 10 -9 16 -20z
m-337 -5 c-3 -9 -8 -14 -10 -11 -3 3 -2 9 2 15 9 16 15 13 8 -4z m378 -61 c12
-20 36 -45 53 -55 34 -21 30 -25 -7 -8 -12 6 -29 20 -37 32 -7 12 -20 32 -28
45 -8 12 -12 22 -9 22 3 0 15 -16 28 -36z m869 -7 c0 -1 -24 -25 -52 -52 l-53
-50 50 53 c46 48 55 57 55 49z m730 -1 c0 -2 -7 -7 -16 -10 -8 -3 -12 -2 -9 4
6 10 25 14 25 6z m-890 -151 c-30 -30 -57 -55 -61 -55 -8 0 103 109 111 110 2
0 -20 -25 -50 -55z m-411 -11 c13 -12 -8 -10 -29 2 l-25 15 25 -7 c14 -3 27
-8 29 -10z m1231 -137 c0 -2 -10 -12 -22 -23 l-23 -19 19 23 c18 21 26 27 26
19z m-60 -11 c0 -2 -8 -10 -17 -17 -16 -13 -17 -12 -4 4 13 16 21 21 21 13z
m807 -12 c-3 -3 -12 -4 -19 -1 -8 3 -5 6 6 6 11 1 17 -2 13 -5z m-2537 -79
c35 -36 62 -65 59 -65 -2 0 -34 29 -69 65 -35 36 -62 65 -59 65 2 0 34 -29 69
-65z m2660 50 c40 -21 38 -27 -2 -11 -18 7 -40 16 -48 19 -12 4 -11 6 3 6 10
1 31 -6 47 -14z m134 -95 c-6 -6 -10 -3 -10 10 0 13 4 16 10 10 7 -7 7 -13 0
-20z m-1229 10 c-4 -6 5 -28 20 -48 l27 -37 -36 40 c-24 28 -31 42 -23 47 16
10 19 10 12 -2z m-1310 -30 c13 -25 13 -30 1 -30 -8 0 -16 13 -18 30 -3 17 -3
30 -2 30 2 0 10 -13 19 -30z m2590 -20 c3 -5 1 -10 -4 -10 -6 0 -11 5 -11 10
0 6 2 10 4 10 3 0 8 -4 11 -10z m54 -107 c23 -46 39 -83 36 -83 -5 0 -85 156
-85 166 0 12 7 1 49 -83z m-238 -71 c-5 -10 -18 -25 -27 -33 -11 -9 -9 -2 6
19 26 35 36 42 21 14z m-949 -39 c25 -30 32 -50 7 -21 -13 14 -31 28 -39 31
-13 5 -13 6 1 6 9 1 23 -7 31 -16z m1068 7 c-8 -5 -19 -10 -25 -10 -5 0 -3 5
5 10 8 5 20 10 25 10 6 0 3 -5 -5 -10z m-1205 -10 c-22 -4 -94 -10 -160 -13
-108 -4 -116 -3 -80 8 24 8 87 13 160 13 84 0 108 -2 80 -8z m-1765 -10 c11
-7 7 -10 -18 -10 -20 0 -31 4 -27 10 8 13 26 13 45 0z m3100 7 c0 -2 -12 -14
-27 -28 l-28 -24 24 28 c23 25 31 32 31 24z m-2780 -47 c79 -11 146 -22 148
-25 8 -8 -13 -6 -183 19 -88 13 -148 25 -134 25 14 1 90 -8 169 -19z m935 0
c-22 -4 -71 -10 -110 -13 l-70 -5 70 13 c39 7 88 13 110 13 l40 0 -40 -8z
m1574 -9 c-23 -19 -23 -19 -6 -55 9 -20 17 -40 16 -44 0 -4 -11 15 -24 43
l-24 50 22 12 c33 19 42 15 16 -6z m-484 -1 c27 -7 28 -8 5 -8 -14 -1 -43 3
-65 7 l-40 9 35 0 c19 0 49 -4 65 -8z m-1292 -17 c-7 -2 -19 -2 -25 0 -7 3 -2
5 12 5 14 0 19 -2 13 -5z m-1353 -13 c-8 -5 -19 -10 -25 -10 -5 0 -3 5 5 10 8
5 20 10 25 10 6 0 3 -5 -5 -10z m807 4 c-3 -3 -12 -4 -19 -1 -8 3 -5 6 6 6 11
1 17 -2 13 -5z m489 -2 c-3 -5 43 -62 101 -128 58 -65 87 -101 64 -79 -47 44
-181 199 -181 209 0 3 5 6 11 6 5 0 8 -4 5 -8z m1768 -1 c3 -5 -3 -11 -15 -14
-16 -4 -18 -3 -8 9 13 16 16 17 23 5z m-2157 -17 c-3 -3 -12 -4 -19 -1 -8 3
-5 6 6 6 11 1 17 -2 13 -5z m2022 -10 c2 -2 -15 -4 -38 -4 -25 0 -40 4 -36 10
5 8 63 3 74 -6z m-1991 -40 c-3 -27 -4 -26 -9 8 -3 22 -1 34 4 29 5 -5 7 -21
5 -37z m1791 -81 c-58 -60 -113 -119 -122 -133 -17 -24 -17 -24 -1 10 12 28
207 228 223 230 3 0 -42 -48 -100 -107z m1871 94 c0 -2 -10 -12 -22 -23 l-23
-19 19 23 c18 21 26 27 26 19z m-5038 -25 c-6 -2 -12 -13 -12 -24 0 -27 -5
-21 -14 14 -5 23 -4 25 16 20 12 -3 17 -7 10 -10z m328 8 c-16 -11 -21 -6 61
-73 l34 -29 -40 28 c-94 65 -105 81 -55 83 13 1 13 0 0 -9z m-183 -17 c-20 -2
-52 -2 -70 0 -17 2 0 4 38 4 39 0 53 -2 32 -4z m3023 4 c0 -2 -15 -16 -32 -33
l-33 -29 29 33 c28 30 36 37 36 29z m-2866 -42 c59 -46 60 -55 2 -13 -25 17
-62 34 -83 38 l-38 8 36 1 c27 1 48 -8 83 -34z m3523 -7 c-3 -7 -5 -2 -5 12 0
14 2 19 5 13 2 -7 2 -19 0 -25z m-3830 -20 c-3 -8 -6 -5 -6 6 -1 11 2 17 5 13
3 -3 4 -12 1 -19z m1390 -10 c-3 -7 -5 -2 -5 12 0 14 2 19 5 13 2 -7 2 -19 0
-25z m2203 -23 c0 -5 -5 -3 -10 5 -5 8 -10 20 -10 25 0 6 5 3 10 -5 5 -8 10
-19 10 -25z m247 -2 c-3 -10 -5 -4 -5 12 0 17 2 24 5 18 2 -7 2 -21 0 -30z
m-3449 -97 l-2 -91 -3 89 c-2 50 -9 97 -16 105 -11 14 -10 14 6 2 14 -11 17
-28 15 -105z m3459 27 c-3 -10 -5 -2 -5 17 0 19 2 27 5 18 2 -10 2 -26 0 -35z
m-208 -38 c0 -5 -8 6 -19 25 -11 19 -19 40 -19 45 0 6 8 -6 19 -25 11 -19 19
-39 19 -45z m-1629 -20 c35 -36 62 -65 59 -65 -2 0 -34 29 -69 65 -35 36 -62
65 -59 65 2 0 34 -29 69 -65z m1677 -7 c-3 -8 -6 -5 -6 6 -1 11 2 17 5 13 3
-3 4 -12 1 -19z m-40 -25 c-3 -10 -5 -4 -5 12 0 17 2 24 5 18 2 -7 2 -21 0
-30z m-3199 -143 c0 -8 -6 8 -14 35 -7 28 -13 64 -13 80 1 18 6 5 14 -35 8
-36 14 -72 13 -80z m1466 -53 c49 -54 86 -101 82 -105 -4 -4 -12 2 -18 12 -13
22 -151 177 -197 221 -27 25 -33 27 -41 15 -7 -11 -10 -6 -9 20 l0 35 47 -51
c26 -28 87 -94 136 -147z m-517 116 c-2 -16 -4 -5 -4 22 0 28 2 40 4 28 2 -13
2 -35 0 -50z m1578 -5 c-32 -91 -36 -97 -29 -53 5 35 39 115 48 115 2 0 -7
-28 -19 -62z m662 10 c-2 -13 -4 -5 -4 17 -1 22 1 32 4 23 2 -10 2 -28 0 -40z
m-1492 -38 c38 -38 67 -70 64 -70 -2 0 -36 32 -74 70 -38 39 -67 70 -64 70 2
0 36 -31 74 -70z m-398 -17 c-3 -10 -5 -2 -5 17 0 19 2 27 5 18 2 -10 2 -26 0
-35z m2943 -7 c0 -2 -8 -10 -17 -17 -16 -13 -17 -12 -4 4 13 16 21 21 21 13z
m-1000 -48 c15 -21 17 -28 6 -19 -16 13 -41 51 -33 51 2 0 14 -15 27 -32z
m-3233 0 c-3 -8 -6 -5 -6 6 -1 11 2 17 5 13 3 -3 4 -12 1 -19z m3482 -33 c0
-5 -6 1 -14 15 -8 14 -14 30 -14 35 0 6 6 -1 14 -15 8 -14 14 -29 14 -35z
m-3862 23 c-3 -8 -6 -5 -6 6 -1 11 2 17 5 13 3 -3 4 -12 1 -19z m502 -77 c72
-101 79 -115 62 -126 -6 -3 -9 3 -8 13 1 15 -23 54 -122 193 -7 10 -11 19 -8
19 3 0 37 -45 76 -99z m831 54 l0 -45 -52 2 -53 2 48 3 47 4 0 40 c0 21 2 39
5 39 3 0 5 -20 5 -45z m2250 5 c17 -22 29 -40 27 -40 -3 0 -20 18 -37 40 -17
22 -29 40 -27 40 3 0 20 -18 37 -40z m-1903 -2 c-3 -7 -5 -2 -5 12 0 14 2 19
5 13 2 -7 2 -19 0 -25z m897 -5 c9 -18 14 -33 12 -33 -6 0 -36 55 -36 66 0 11
5 3 24 -33z m283 15 c-3 -8 -6 -5 -6 6 -1 11 2 17 5 13 3 -3 4 -12 1 -19z
m-702 -8 c10 -11 16 -20 13 -20 -3 0 -13 9 -23 20 -10 11 -16 20 -13 20 3 0
13 -9 23 -20z m212 14 c-3 -3 -12 -4 -19 -1 -8 3 -5 6 6 6 11 1 17 -2 13 -5z
m-1980 -26 c-3 -8 -6 -5 -6 6 -1 11 2 17 5 13 3 -3 4 -12 1 -19z m460 6 c-3
-3 -12 -4 -19 -1 -8 3 -5 6 6 6 11 1 17 -2 13 -5z m130 -10 c-3 -3 -12 -4 -19
-1 -8 3 -5 6 6 6 11 1 17 -2 13 -5z m1870 -16 c-3 -8 -6 -5 -6 6 -1 11 2 17 5
13 3 -3 4 -12 1 -19z m-2840 -25 c-3 -10 -5 -4 -5 12 0 17 2 24 5 18 2 -7 2
-21 0 -30z m1707 -12 c-7 -9 -34 10 -34 24 0 13 3 12 18 -2 10 -10 17 -20 16
-22z m1991 -101 c36 -52 65 -101 65 -109 0 -8 -16 11 -35 43 -19 31 -55 87
-81 124 -25 37 -39 60 -30 52 8 -8 45 -58 81 -110z m-1850 70 c7 -12 -2 -12
-30 0 -19 8 -19 9 2 9 12 1 25 -3 28 -9z m-1865 -20 c-6 -11 -13 -20 -16 -20
-2 0 0 9 6 20 6 11 13 20 16 20 2 0 0 -9 -6 -20z m2797 -12 c-3 -8 -6 -5 -6 6
-1 11 2 17 5 13 3 -3 4 -12 1 -19z m-257 -38 c-6 -11 -13 -20 -16 -20 -2 0 0
9 6 20 6 11 13 20 16 20 2 0 0 -9 -6 -20z m-2633 -109 c-29 -55 -53 -98 -55
-96 -4 3 39 90 75 153 45 76 33 44 -20 -57z m2596 43 c-10 -19 -19 -31 -21
-25 -3 9 26 61 34 61 2 0 -4 -16 -13 -36z m-2046 -6 c-3 -8 -6 -5 -6 6 -1 11
2 17 5 13 3 -3 4 -12 1 -19z m3553 -18 c6 -11 8 -20 6 -20 -3 0 -10 9 -16 20
-6 11 -8 20 -6 20 3 0 10 -9 16 -20z m665 10 c3 -5 2 -10 -4 -10 -5 0 -13 5
-16 10 -3 6 -2 10 4 10 5 0 13 -4 16 -10z m-4208 -32 c-3 -8 -6 -5 -6 6 -1 11
2 17 5 13 3 -3 4 -12 1 -19z m110 -60 c29 -27 49 -48 46 -48 -9 0 -107 93
-111 105 -2 7 -1 7 5 0 4 -5 31 -31 60 -57z m3503 -34 c20 -35 22 -46 12 -56
-11 -11 -12 -10 -6 5 3 9 2 23 -3 30 -20 26 -63 111 -46 89 11 -13 30 -43 43
-68z m-3603 54 c-3 -8 -6 -5 -6 6 -1 11 2 17 5 13 3 -3 4 -12 1 -19z m2142
-163 c35 -38 15 -20 -43 40 -58 61 -106 118 -106 129 0 12 16 -3 44 -40 23
-33 71 -90 105 -129z m-1289 153 c0 -9 -15 -12 -52 -9 -39 3 -48 6 -33 12 32
12 85 10 85 -3z m-290 -8 c-30 -5 -80 -8 -110 -7 l-55 0 65 7 c36 4 85 7 110
7 44 0 44 0 -10 -7z m985 -5 c6 -2 -26 -3 -70 -3 -50 0 -70 3 -55 7 23 7 101
4 125 -4z m2965 11 c0 -2 -8 -10 -17 -17 -16 -13 -17 -12 -4 4 13 16 21 21 21
13z m-4131 -20 c-2 -2 -24 -6 -49 -10 -31 -4 -40 -3 -30 4 13 9 89 15 79 6z
m978 -2 c-3 -3 -12 -4 -19 -1 -8 3 -5 6 6 6 11 1 17 -2 13 -5z m286 -1 c-7 -2
-21 -2 -30 0 -10 3 -4 5 12 5 17 0 24 -2 18 -5z m-418 -13 c-3 -5 -12 -10 -18
-10 -7 0 -6 4 3 10 19 12 23 12 15 0z m763 -273 l283 -283 -4 -89 -3 -90 -2
90 -2 90 -283 283 c-156 155 -280 282 -277 282 3 0 132 -127 288 -283z m-1971
251 c-3 -8 -6 -5 -6 6 -1 11 2 17 5 13 3 -3 4 -12 1 -19z m2280 -10 c-3 -8 -6
-5 -6 6 -1 11 2 17 5 13 3 -3 4 -12 1 -19z m-2238 -133 c-1 -16 -26 57 -32 95
-4 19 2 8 13 -25 11 -33 19 -64 19 -70z m3278 103 c-3 -8 -6 -5 -6 6 -1 11 2
17 5 13 3 -3 4 -12 1 -19z m-1013 -45 c14 -29 24 -53 21 -53 -5 0 -55 95 -55
106 0 12 6 2 34 -53z m-1467 -45 c-2 -18 -4 -4 -4 32 0 36 2 50 4 33 2 -18 2
-48 0 -65z m2715 60 c-17 -19 -97 -72 -82 -55 8 9 95 76 99 76 3 1 -5 -9 -17
-21z m-4241 -15 c-12 -20 -14 -14 -5 12 4 9 9 14 11 11 3 -2 0 -13 -6 -23z
m4016 5 c-3 -8 -6 -5 -6 6 -1 11 2 17 5 13 3 -3 4 -12 1 -19z m-4036 -57 c-6
-11 -15 -83 -20 -158 l-8 -138 -2 127 c-1 101 3 135 16 163 9 19 18 33 21 31
2 -2 -1 -14 -7 -25z m4046 7 c-3 -8 -6 -5 -6 6 -1 11 2 17 5 13 3 -3 4 -12 1
-19z m40 0 c-3 -8 -6 -5 -6 6 -1 11 2 17 5 13 3 -3 4 -12 1 -19z m-30 -40 c-3
-8 -6 -5 -6 6 -1 11 2 17 5 13 3 -3 4 -12 1 -19z m47 7 c3 -8 1 -15 -4 -15 -6
0 -10 7 -10 15 0 8 2 15 4 15 2 0 6 -7 10 -15z m-3335 -45 c0 -9 -4 -8 -9 5
-5 11 -9 27 -9 35 0 9 4 8 9 -5 5 -11 9 -27 9 -35z m1128 -335 c0 -129 -2
-153 -7 -100 -4 39 -7 160 -7 270 0 169 1 185 7 100 4 -55 7 -176 7 -270z
m1189 202 c-23 45 -36 83 -31 83 7 0 76 -152 72 -157 -2 -1 -55 52 -117 119
l-113 123 102 -100 c76 -73 99 -91 87 -68z m984 149 c0 -2 -8 -10 -17 -17 -16
-13 -17 -12 -4 4 13 16 21 21 21 13z m-2533 -38 c-3 -7 -5 -2 -5 12 0 14 2 19
5 13 2 -7 2 -19 0 -25z m2538 -18 c-3 -5 -11 -10 -16 -10 -6 0 -7 5 -4 10 3 6
11 10 16 10 6 0 7 -4 4 -10z m-159 -49 c-7 -11 -142 -77 -176 -86 -14 -3 20
16 75 44 114 56 108 54 101 42z m-3126 -105 c0 -2 -8 -10 -17 -17 -16 -13 -17
-12 -4 4 13 16 21 21 21 13z m-62 -82 c-18 -25 -57 -72 -86 -103 l-53 -56 53
65 c29 36 66 82 82 103 40 53 44 46 4 -9z m77 26 c3 -5 -1 -10 -10 -10 -9 0
-13 5 -10 10 3 6 8 10 10 10 2 0 7 -4 10 -10z m2419 -46 c15 -27 19 -41 10
-33 -14 12 -44 61 -44 74 0 14 10 1 34 -41z m-3544 16 c0 -5 -5 -10 -11 -10
-5 0 -7 5 -4 10 3 6 8 10 11 10 2 0 4 -4 4 -10z m3809 -34 c-2 -2 -15 -9 -29
-15 -24 -11 -24 -11 -6 3 16 13 49 24 35 12z m-139 -46 c-19 -16 -42 -29 -50
-29 -10 0 -8 3 5 9 11 5 31 18 45 29 39 32 39 24 0 -9z m1787 -2 c-3 -8 -6 -5
-6 6 -1 11 2 17 5 13 3 -3 4 -12 1 -19z m-2057 -85 c81 -84 82 -85 10 -15 -42
39 -79 72 -82 72 -4 0 -9 -30 -11 -67 l-3 -68 -2 83 c-1 45 -1 82 1 82 1 0 41
-39 87 -87z m-2490 4 c0 -2 -15 -16 -32 -33 l-33 -29 29 33 c28 30 36 37 36
29z m-666 -57 c-34 -52 -41 -52 -12 0 13 22 26 40 31 40 4 0 -5 -18 -19 -40z
m1583 -52 c-2 -18 -4 -4 -4 32 0 36 2 50 4 33 2 -18 2 -48 0 -65z m-1986 -174
c-6 -59 -13 -109 -15 -111 -2 -2 -6 28 -10 67 -6 56 -4 81 10 116 9 24 19 42
21 40 3 -2 0 -53 -6 -112z m1970 -16 l-11 -33 5 40 c3 22 6 60 7 85 l2 45 3
-52 c2 -28 -1 -66 -6 -85z m1706 -165 c-1 -54 -3 -10 -3 97 0 107 2 151 3 98
2 -54 2 -142 0 -195z m-3598 230 c-1 -21 -3 -29 -6 -18 -10 45 -16 51 -23 25
l-8 -25 -1 28 c-1 21 4 27 19 27 17 0 20 -6 19 -37z m226 7 c-8 -16 -15 -42
-16 -57 0 -27 -1 -27 -9 -6 -7 17 -4 32 11 58 25 43 35 46 14 5z m30 -150 c23
-35 27 -44 10 -25 -14 17 -33 44 -42 60 -21 41 -12 30 32 -35z m665 -64 c0 -7
-12 -22 -27 -31 l-27 -18 24 31 c29 36 30 37 30 18z m-609 -13 c13 -16 12 -17
-3 -4 -17 13 -22 21 -14 21 2 0 10 -8 17 -17z m3039 -46 c0 -29 -7 -38 -47
-66 l-48 -33 37 32 c24 20 40 43 44 66 8 43 14 44 14 1z m-3009 6 c13 -16 12
-17 -3 -4 -10 7 -18 15 -18 17 0 8 8 3 21 -13z m514 -3 c-8 -13 -106 -70 -120
-70 -5 0 15 14 45 31 30 16 59 34 64 39 13 13 19 13 11 0z m-928 -82 c-2 -18
-4 -6 -4 27 0 33 2 48 4 33 2 -15 2 -42 0 -60z m452 28 c-3 -3 -11 5 -18 17
-13 21 -12 21 5 5 10 -10 16 -20 13 -22z m498 -8 c-3 -7 -5 -2 -5 12 0 14 2
19 5 13 2 -7 2 -19 0 -25z m-517 -29 c15 -28 5 -23 -15 7 -9 15 -12 23 -6 20
6 -4 16 -16 21 -27z m3017 -201 c-1 -46 -3 -11 -3 77 0 88 2 125 3 83 2 -42 2
-114 0 -160z m-3380 175 c-3 -10 -5 -2 -5 17 0 19 2 27 5 18 2 -10 2 -26 0
-35z m698 32 c-16 -8 -41 -14 -55 -14 -17 1 -11 5 20 14 59 17 73 17 35 0z
m919 -160 c61 -36 59 -43 -3 -10 -26 15 -79 59 -117 98 l-69 71 72 -66 c39
-37 92 -78 117 -93z m1723 103 c-2 -13 -4 -5 -4 17 -1 22 1 32 4 23 2 -10 2
-28 0 -40z m-1902 1 c11 -17 -1 -21 -15 -4 -8 9 -8 15 -2 15 6 0 14 -5 17 -11z
m1732 -23 c-26 -21 -126 -60 -135 -52 -2 2 18 11 45 20 26 9 62 25 78 36 40
27 47 25 12 -4z m-917 -11 c14 -7 41 -30 60 -51 l35 -38 -49 42 c-60 52 -75
56 -185 50 -83 -5 -85 -5 -41 8 51 15 142 9 180 -11z m-2209 -2 c13 -16 12
-17 -3 -4 -10 7 -18 15 -18 17 0 8 8 3 21 -13z m-104 -25 c-3 -7 -5 -2 -5 12
0 14 2 19 5 13 2 -7 2 -19 0 -25z m2080 16 c-3 -3 -12 -4 -19 -1 -8 3 -5 6 6
6 11 1 17 -2 13 -5z m-1936 -21 c13 -16 12 -17 -3 -4 -10 7 -18 15 -18 17 0 8
8 3 21 -13z m1417 -5 l21 -23 -25 0 c-18 0 -24 5 -24 23 0 12 1 22 3 22 2 0
13 -10 25 -22z m-1373 -28 c10 -11 16 -20 13 -20 -3 0 -13 9 -23 20 -10 11
-16 20 -13 20 3 0 13 -9 23 -20z m-178 -52 c-3 -7 -5 -2 -5 12 0 14 2 19 5 13
2 -7 2 -19 0 -25z m224 15 c13 -16 12 -17 -3 -4 -10 7 -18 15 -18 17 0 8 8 3
21 -13z m2200 0 c13 -16 12 -17 -3 -4 -17 13 -22 21 -14 21 2 0 10 -8 17 -17z
m409 -24 c-46 -16 -102 -29 -125 -28 -32 0 -23 4 45 19 47 10 96 23 110 28 14
6 32 11 40 11 8 0 -23 -14 -70 -30z m-2569 -6 c13 -16 12 -17 -3 -4 -10 7 -18
15 -18 17 0 8 8 3 21 -13z m2332 -30 c-7 -2 -21 -2 -30 0 -10 3 -4 5 12 5 17
0 24 -2 18 -5z m-2570 -148 l6 -60 -14 65 c-8 36 -14 83 -13 105 l0 40 8 -45
c4 -25 10 -72 13 -105z m2460 138 c-7 -2 -21 -2 -30 0 -10 3 -4 5 12 5 17 0
24 -2 18 -5z m-275 -10 c-21 -2 -57 -2 -80 0 -24 2 -7 4 37 4 44 0 63 -2 43
-4z m-1888 -7 c0 -2 -8 -10 -17 -17 -16 -13 -17 -12 -4 4 13 16 21 21 21 13z
m3070 -1 c0 -2 -10 -9 -22 -15 -22 -11 -22 -10 -4 4 21 17 26 19 26 11z m-803
-11 c-3 -3 -12 -4 -19 -1 -8 3 -5 6 6 6 11 1 17 -2 13 -5z m-49 -16 c-9 -7
-19 -24 -21 -38 -4 -21 -4 -20 -6 7 l-1 32 -72 4 c-69 3 -68 3 21 5 78 2 92 0
79 -10z m-2258 -2 c0 -2 -8 -10 -17 -17 -16 -13 -17 -12 -4 4 13 16 21 21 21
13z m1592 -3 c2 -5 1 -24 -3 -43 l-6 -35 -2 31 c0 16 -6 35 -13 42 -9 9 -8 12
4 12 9 0 18 -3 20 -7z m217 3 c-10 -9 -179 -14 -179 -6 0 6 40 10 92 10 50 0
89 -2 87 -4z m1321 -13 c0 -5 -18 -16 -40 -25 -48 -20 -51 -17 -7 11 34 22 47
26 47 14z m-120 -18 c0 -6 -76 -45 -87 -45 -4 1 12 12 37 25 50 27 50 27 50
20z m-1042 -12 c-10 -2 -28 -2 -40 0 -13 2 -5 4 17 4 22 1 32 -1 23 -4z m-161
-19 c-3 -3 -12 -4 -19 -1 -8 3 -5 6 6 6 11 1 17 -2 13 -5z m-1923 -47 c14 -20
21 -37 16 -37 -5 0 -19 19 -31 43 -25 48 -21 47 15 -6z m1885 39 c-2 -2 -22
-9 -43 -15 -22 -5 -35 -6 -30 -2 9 9 37 18 63 20 8 0 12 -1 10 -3z m1263 -97
c2 -56 0 -103 -4 -106 -5 -2 -8 39 -8 91 0 61 -4 96 -11 96 -5 0 -7 5 -4 10
16 27 24 1 27 -91z m-79 -191 c-32 -31 -113 -78 -113 -64 0 2 24 18 54 35 80
45 86 57 86 179 0 119 11 113 -114 61 -38 -16 -71 -28 -73 -26 -2 3 40 23 94
45 l98 41 3 -117 3 -116 -38 -38z m-1386 192 c-1 -33 -3 -60 -4 -60 -2 0 -9
15 -16 33 -10 23 -11 41 -4 64 15 48 27 30 24 -37z m-1597 8 c0 -3 -9 -4 -21
-1 -13 4 -16 8 -10 13 7 3 9 15 6 26 -4 12 -1 10 9 -6 8 -14 15 -28 16 -32z
m1810 49 c0 -2 -10 -12 -21 -23 -22 -19 -22 -19 -8 4 12 19 29 30 29 19z m447
-34 c-3 -10 -5 -4 -5 12 0 17 2 24 5 18 2 -7 2 -21 0 -30z m-40 -5 c-3 -7 -5
-2 -5 12 0 14 2 19 5 13 2 -7 2 -19 0 -25z m573 2 c-8 -5 -19 -10 -25 -10 -5
0 -3 5 5 10 8 5 20 10 25 10 6 0 3 -5 -5 -10z m470 -25 c0 -5 -5 -3 -10 5 -5
8 -10 20 -10 25 0 6 5 3 10 -5 5 -8 10 -19 10 -25z m-535 0 c-16 -8 -41 -14
-55 -14 -17 0 -11 5 20 13 59 17 72 18 35 1z m-995 -10 c-7 -8 -22 -15 -34
-15 -17 1 -16 3 9 15 39 18 40 18 25 0z m89 -16 c16 -46 13 -60 -4 -20 -11 24
-19 31 -31 27 -14 -5 -15 -4 -4 9 18 22 27 19 39 -16z m971 6 c-14 -8 -29 -14
-35 -14 -5 0 1 6 15 14 14 8 30 14 35 14 6 0 -1 -6 -15 -14z m430 5 c0 -5 -5
-10 -11 -10 -5 0 -7 5 -4 10 3 6 8 10 11 10 2 0 4 -4 4 -10z m-592 -7 c-10 -2
-28 -2 -40 0 -13 2 -5 4 17 4 22 1 32 -1 23 -4z m652 -33 c0 -11 -2 -20 -4
-20 -2 0 -6 9 -9 20 -3 11 -1 20 4 20 5 0 9 -9 9 -20z m-1123 -22 c-3 -7 -5
-2 -5 12 0 14 2 19 5 13 2 -7 2 -19 0 -25z m-487 18 c0 -2 -9 -6 -20 -9 -11
-3 -20 -1 -20 4 0 5 9 9 20 9 11 0 20 -2 20 -4z m938 -3 c-32 -2 -84 -2 -115
0 -32 2 -6 3 57 3 63 0 89 -1 58 -3z m635 -15 c8 -29 1 -36 -8 -8 -4 13 -12
19 -21 16 -9 -3 -12 -1 -9 4 11 18 32 11 38 -12z m-900 5 l-83 -4 -1 -32 -1
-32 -7 30 c-4 17 -6 33 -4 38 2 4 43 6 91 5 l87 -2 -82 -3z m-897 -51 c-5 -4
-86 36 -86 43 0 3 20 -5 45 -17 24 -12 43 -23 41 -26z m3109 38 c-3 -5 -12
-10 -18 -10 -7 0 -6 4 3 10 19 12 23 12 15 0z m-3022 -18 c15 -2 34 1 42 8 12
10 15 9 15 -4 0 -21 -65 -21 -100 0 -16 10 -18 13 -5 8 11 -4 32 -9 48 -12z
m167 -8 c0 -2 -18 -4 -40 -4 -22 0 -40 3 -40 8 0 4 18 6 40 4 22 -2 40 -6 40
-8z m1390 -27 c-14 -12 -38 -35 -55 -52 -16 -16 -19 -18 -7 -4 12 14 22 30 22
37 0 6 12 18 28 26 38 21 41 19 12 -7z m-1327 -38 c50 -26 47 -32 -5 -13 -24
9 -80 18 -125 21 -46 3 -83 9 -83 13 0 15 175 -3 213 -21z m69 10 c23 -12 58
-28 77 -35 l36 -14 -35 6 c-19 4 -57 19 -85 35 -58 34 -53 39 7 8z m425 -26
c-3 -10 -5 -2 -5 17 0 19 2 27 5 18 2 -10 2 -26 0 -35z m523 42 c0 -2 -10 -9
-22 -15 -22 -11 -22 -10 -4 4 21 17 26 19 26 11z m499 -40 c0 -5 -4 -3 -9 5
-5 8 -9 22 -9 30 0 16 17 -16 18 -35z m-3385 9 c3 -8 2 -12 -4 -9 -6 3 -10 10
-10 16 0 14 7 11 14 -7z m2916 3 c-18 -17 -98 -64 -87 -51 9 10 89 62 97 63 2
1 -2 -5 -10 -12z m-383 -93 c76 -48 143 -91 148 -97 13 -13 14 -14 -144 82
-73 45 -137 81 -142 81 -5 0 -9 5 -9 10 0 6 2 10 4 10 3 0 67 -39 143 -86z
m-2592 46 c3 -5 1 -10 -4 -10 -6 0 -11 5 -11 10 0 6 2 10 4 10 3 0 8 -4 11
-10z m55 0 c0 -5 -5 -10 -11 -10 -5 0 -7 5 -4 10 3 6 8 10 11 10 2 0 4 -4 4
-10z m1354 -59 c-9 -34 -19 -60 -21 -58 -2 3 4 32 13 66 10 33 19 59 21 57 3
-2 -3 -32 -13 -65z m1206 43 c0 -2 -9 0 -20 6 -11 6 -20 13 -20 16 0 2 9 0 20
-6 11 -6 20 -13 20 -16z m-387 9 c-7 -2 -21 -2 -30 0 -10 3 -4 5 12 5 17 0 24
-2 18 -5z m137 3 c0 -6 -93 -37 -97 -32 -2 2 15 11 39 19 47 17 58 19 58 13z
m1823 -3 c-7 -2 -19 -2 -25 0 -7 3 -2 5 12 5 14 0 19 -2 13 -5z m-1313 -8 c0
-2 -10 -9 -22 -15 -22 -11 -22 -10 -4 4 21 17 26 19 26 11z m-717 -21 c37 -7
47 -17 27 -29 -6 -4 -17 -2 -24 4 -7 6 -31 18 -52 26 -21 9 -28 13 -14 10 14
-3 42 -8 63 -11z m522 -19 l20 -16 -20 10 c-11 5 -29 17 -40 26 l-20 16 20
-10 c11 -5 29 -17 40 -26z m748 10 c-3 -9 -8 -14 -10 -11 -3 3 -2 9 2 15 9 16
15 13 8 -4z m-3380 -12 c-7 -2 -19 -2 -25 0 -7 3 -2 5 12 5 14 0 19 -2 13 -5z
m2410 -164 c36 -21 87 -45 112 -54 25 -10 44 -20 42 -22 -2 -2 -35 8 -72 22
-72 27 -209 116 -285 185 -27 24 -8 13 46 -27 51 -37 121 -84 157 -104z m3117
-509 c166 -322 305 -589 308 -595 3 -7 2 -7 -5 0 -6 6 -120 219 -253 475 -327
627 -394 750 -402 742 -4 -4 -14 -37 -22 -72 -20 -91 -19 -52 0 48 l17 83 27
-48 c15 -26 163 -311 330 -633z m-2113 648 c-3 -8 -6 -5 -6 6 -1 11 2 17 5 13
3 -3 4 -12 1 -19z m-600 -40 c46 31 60 36 28 8 -48 -40 -60 -41 -125 -1 -80
49 -77 55 5 10 l65 -37 27 20z m172 49 c-22 -17 -100 -57 -95 -48 8 12 75 50
90 51 5 0 7 -1 5 -3z m-784 -58 l30 -33 -42 33 c-48 36 -67 59 -37 43 11 -6
33 -25 49 -43z m-2625 19 c-1 -21 -2 -21 -11 -5 -12 20 -87 24 -109 5 -12 -11
-12 -10 -1 5 10 12 28 17 67 17 49 0 54 -2 54 -22z m1724 -159 c-19 -73 -32
-114 -29 -89 6 48 56 233 61 227 2 -2 -12 -64 -32 -138z m1576 137 c0 -2 -8
-10 -17 -17 -16 -13 -17 -12 -4 4 13 16 21 21 21 13z m537 -80 c-2 -6 -7 4
-11 22 -4 18 -12 30 -17 26 -11 -6 -12 19 -2 30 8 8 35 -63 30 -78z m-667 38
c0 -2 -9 0 -20 6 -11 6 -20 13 -20 16 0 2 9 0 20 -6 11 -6 20 -13 20 -16z
m-489 -1 c13 -16 12 -17 -3 -4 -10 7 -18 15 -18 17 0 8 8 3 21 -13z m642 -33
c31 -17 57 -34 57 -37 0 -2 -31 13 -69 34 -38 20 -67 41 -64 46 3 5 8 5 12 -1
3 -5 32 -24 64 -42z m-3508 20 c-15 -17 -16 -22 -4 -37 12 -17 12 -17 -6 -1
-18 17 -18 18 0 38 10 11 20 20 23 20 3 0 -3 -9 -13 -20z m3940 -22 c-4 -18
-16 -49 -27 -68 -10 -19 -17 -28 -14 -20 35 112 55 155 41 88z m-1005 -15 c0
-7 -39 17 -46 28 -3 6 5 3 20 -6 14 -10 26 -19 26 -22z m615 -54 c125 -69 170
-101 273 -193 67 -60 122 -112 122 -115 0 -2 -10 5 -22 16 -156 140 -271 223
-445 322 -51 29 -93 55 -93 57 0 3 3 3 8 1 4 -2 75 -42 157 -88z m494 1 c0 -9
-4 -8 -9 5 -5 11 -9 27 -9 35 0 9 4 8 9 -5 5 -11 9 -27 9 -35z m-3934 -18 c-5
-6 -73 29 -85 43 -6 7 11 1 39 -13 27 -15 48 -28 46 -30z m5626 -31 c-6 -38
-11 -87 -12 -108 0 -31 -2 -34 -9 -17 -5 13 -3 52 6 100 7 43 14 85 14 93 0 8
3 12 6 8 3 -3 1 -37 -5 -76z m-2101 43 c0 -2 -9 0 -20 6 -11 6 -20 13 -20 16
0 2 9 0 20 -6 11 -6 20 -13 20 -16z m-494 -40 c84 -30 238 -122 296 -175 l43
-38 -35 0 c-31 1 -32 2 -10 8 23 6 20 10 -50 60 -63 44 -192 112 -300 159 -48
20 -12 12 56 -14z m911 4 c-3 -8 -6 -5 -6 6 -1 11 2 17 5 13 3 -3 4 -12 1 -19z
m-177 -50 c-16 -30 -41 -58 -51 -58 -5 0 6 20 24 44 34 46 46 53 27 14z
m-3559 -15 c13 -16 12 -17 -3 -4 -10 7 -18 15 -18 17 0 8 8 3 21 -13z m3756
-5 c-3 -8 -6 -5 -6 6 -1 11 2 17 5 13 3 -3 4 -12 1 -19z m-3726 -35 c13 -16
12 -17 -3 -4 -17 13 -22 21 -14 21 2 0 10 -8 17 -17z m1526 -15 c-3 -7 -5 -2
-5 12 0 14 2 19 5 13 2 -7 2 -19 0 -25z m2310 10 c-3 -8 -6 -5 -6 6 -1 11 2
17 5 13 3 -3 4 -12 1 -19z m-50 -30 c-3 -8 -6 -5 -6 6 -1 11 2 17 5 13 3 -3 4
-12 1 -19z m-3756 -5 c13 -16 12 -17 -3 -4 -17 13 -22 21 -14 21 2 0 10 -8 17
-17z m3684 -159 c22 -17 51 -37 63 -43 21 -11 23 -11 18 6 -16 54 -13 69 4 18
10 -32 18 -60 17 -62 -6 -6 -178 131 -242 191 l-70 67 85 -73 c47 -40 103 -87
125 -104z m-2209 25 c-9 -74 -16 -169 -16 -212 0 -43 -4 -76 -9 -73 -13 8 -3
203 16 324 9 56 18 100 20 98 2 -2 -3 -64 -11 -137z m1844 -65 c58 -51 121
-109 140 -130 19 -21 1 -8 -40 30 -41 37 -130 115 -197 173 -68 58 -123 108
-123 110 0 6 75 -56 220 -183z m-3289 159 c13 -16 12 -17 -3 -4 -10 7 -18 15
-18 17 0 8 8 3 21 -13z m1149 -2 c0 -6 -4 -13 -10 -16 -5 -3 -10 1 -10 9 0 9
5 16 10 16 6 0 10 -4 10 -9z m2637 -13 c-3 -8 -6 -5 -6 6 -1 11 2 17 5 13 3
-3 4 -12 1 -19z m-3910 -103 c19 -38 26 -61 17 -50 -19 23 -59 109 -68 145
l-6 25 12 -25 c6 -14 27 -56 45 -95z m3870 93 c-3 -8 -6 -5 -6 6 -1 11 2 17 5
13 3 -3 4 -12 1 -19z m-40 -10 c-3 -8 -6 -5 -6 6 -1 11 2 17 5 13 3 -3 4 -12
1 -19z m753 -1 c0 -2 -10 -12 -22 -23 l-23 -19 19 23 c18 21 26 27 26 19z
m-2098 -127 c-32 -63 -77 -172 -101 -242 -25 -71 -46 -126 -49 -124 -11 11
114 338 156 408 25 42 47 76 49 75 1 -2 -24 -54 -55 -117z m-1235 43 c-2 -16
-4 -5 -4 22 0 28 2 40 4 28 2 -13 2 -35 0 -50z m2682 -62 c2 -77 -9 -38 -13
50 -3 64 -2 74 4 39 5 -25 9 -65 9 -89z m-648 78 l44 -40 -43 33 c-31 23 -59
34 -95 39 l-52 6 51 2 c47 1 55 -2 95 -40z m-208 24 c-7 -2 -21 -2 -30 0 -10
3 -4 5 12 5 17 0 24 -2 18 -5z m814 -15 c-3 -8 -6 -5 -6 6 -1 11 2 17 5 13 3
-3 4 -12 1 -19z m-990 -124 c-47 -118 -155 -319 -165 -309 -2 2 12 30 31 62
47 79 107 201 147 301 18 45 34 81 36 79 2 -2 -20 -62 -49 -133z m111 129 c-9
-2 -20 -13 -23 -24 -4 -11 -9 -18 -12 -16 -10 10 18 47 35 46 16 -1 16 -2 0
-6z m-2783 -23 c10 -11 16 -20 13 -20 -3 0 -13 9 -23 20 -10 11 -16 20 -13 20
3 0 13 -9 23 -20z m1938 -445 c6 -77 6 -77 -8 20 -7 55 -13 172 -12 260 l0
160 7 -180 c4 -99 10 -216 13 -260z m-1853 410 c11 -13 10 -14 -4 -9 -9 3 -16
10 -16 15 0 13 6 11 20 -6z m3220 -182 c0 -3 -45 36 -100 87 -55 51 -100 94
-100 97 0 3 45 -36 100 -87 55 -51 100 -94 100 -97z m330 97 c47 -35 86 -64
87 -64 3 -2 33 -232 32 -251 -1 -11 -9 32 -20 95 -10 63 -20 124 -23 135 -3
12 -46 52 -96 89 -49 38 -90 71 -90 74 0 2 6 0 13 -5 6 -5 50 -38 97 -73z
m-3434 -61 c41 -54 49 -78 13 -34 -19 22 -52 57 -74 78 l-40 39 38 -25 c21
-13 49 -40 63 -58z m4901 -110 c-30 -96 -67 -218 -83 -271 -15 -54 -29 -96
-32 -94 -2 2 6 39 18 83 30 111 143 463 147 459 2 -2 -20 -82 -50 -177z
m-4090 79 c-2 -18 -4 -6 -4 27 0 33 2 48 4 33 2 -15 2 -42 0 -60z m1122 -17
c-12 -34 -23 -60 -25 -58 -2 2 6 32 17 66 12 34 23 60 25 58 2 -2 -6 -32 -17
-66z m-1002 17 c-3 -8 -6 -5 -6 6 -1 11 2 17 5 13 3 -3 4 -12 1 -19z m10 -40
c-3 -8 -6 -5 -6 6 -1 11 2 17 5 13 3 -3 4 -12 1 -19z m-686 -25 c13 -16 12
-17 -3 -4 -10 7 -18 15 -18 17 0 8 8 3 21 -13z m816 -170 c-2 -32 -3 -6 -3 57
0 63 1 89 3 58 2 -32 2 -84 0 -115z m-1167 122 c13 -14 21 -25 18 -25 -2 0
-15 11 -28 25 -13 14 -21 25 -18 25 2 0 15 -11 28 -25z m-79 -4 c-11 -11 -27
-34 -36 -50 -8 -17 -18 -31 -21 -31 -3 0 7 22 23 50 15 27 34 50 41 50 7 0 4
-8 -7 -19z m2060 -32 c-5 -13 -10 -19 -10 -12 -1 15 10 45 15 40 3 -2 0 -15
-5 -28z m1450 -140 c38 -78 69 -143 67 -145 -2 -2 -36 62 -76 141 -39 80 -70
145 -67 145 3 0 37 -63 76 -141z m-961 111 c-6 -11 -13 -20 -16 -20 -2 0 0 9
6 20 6 11 13 20 16 20 2 0 0 -9 -6 -20z m-520 -925 c-10 -60 -17 -90 -14 -65
2 25 7 243 9 485 3 242 9 456 13 475 4 19 8 -149 9 -375 2 -367 1 -422 -17
-520z m-1690 864 c12 -22 20 -49 18 -60 -2 -13 -11 3 -25 41 -25 70 -22 77 7
19z m2180 11 c-6 -11 -13 -20 -16 -20 -2 0 0 9 6 20 6 11 13 20 16 20 2 0 0
-9 -6 -20z m918 -15 c-3 -3 -9 2 -12 12 -6 14 -5 15 5 6 7 -7 10 -15 7 -18z
m-3518 -5 c-6 -11 -13 -20 -16 -20 -2 0 0 9 6 20 6 11 13 20 16 20 2 0 0 -9
-6 -20z m1957 -22 c-3 -7 -5 -2 -5 12 0 14 2 19 5 13 2 -7 2 -19 0 -25z m1860
-25 c-3 -10 -5 -2 -5 17 0 19 2 27 5 18 2 -10 2 -26 0 -35z m-206 -128 c74
-155 105 -230 57 -140 -42 79 -147 305 -142 305 3 0 41 -74 85 -165z m-3381
145 c0 -5 -5 -10 -11 -10 -5 0 -7 5 -4 10 3 6 8 10 11 10 2 0 4 -4 4 -10z
m1132 -67 c-3 -43 -110 -349 -119 -340 -2 2 19 64 47 138 28 74 53 154 56 179
10 82 21 97 16 23z m1157 -108 c-7 -94 -19 -172 -36 -237 -15 -54 -28 -96 -30
-94 -2 1 6 41 16 87 11 46 25 134 31 194 15 151 21 197 25 193 2 -1 -1 -66 -6
-143z m-512 88 c-3 -10 -5 -4 -5 12 0 17 2 24 5 18 2 -7 2 -21 0 -30z m-40
-20 c-3 -10 -5 -2 -5 17 0 19 2 27 5 18 2 -10 2 -26 0 -35z m15 -429 l-9 -199
0 300 c0 241 1 280 9 199 5 -57 5 -186 0 -300z m-701 335 c-6 -16 -10 -18 -10
-7 -1 22 12 55 16 42 2 -6 -1 -22 -6 -35z m-1006 -29 c-24 -52 -30 -46 -8 8 9
23 18 40 21 37 3 -3 -3 -23 -13 -45z m94 -118 l32 -47 -40 45 c-39 43 -40 48
-39 110 l1 65 7 -63 c5 -47 15 -75 39 -110z m4668 146 c-3 -8 -6 -5 -6 6 -1
11 2 17 5 13 3 -3 4 -12 1 -19z m-1268 -193 c1 -11 -15 16 -35 60 -50 113 -51
121 -5 35 22 -41 40 -84 40 -95z m-3538 68 c-12 -20 -14 -14 -5 12 4 9 9 14
11 11 3 -2 0 -13 -6 -23z m4719 -30 c-11 -17 -11 -17 -6 0 3 10 6 24 7 30 0 9
2 9 5 0 3 -7 0 -20 -6 -30z m-3770 -75 c0 -6 -6 -5 -15 2 -8 7 -15 14 -15 16
0 2 7 1 15 -2 8 -4 15 -11 15 -16z m2577 -40 c-3 -8 -6 -5 -6 6 -1 11 2 17 5
13 3 -3 4 -12 1 -19z m-2546 -25 c-12 -20 -14 -14 -5 12 4 9 9 14 11 11 3 -2
0 -13 -6 -23z m-526 -13 c10 -11 16 -20 13 -20 -3 0 -13 9 -23 20 -10 11 -16
20 -13 20 3 0 13 -9 23 -20z m1796 -81 c-11 -52 -20 -81 -20 -66 -1 31 29 171
35 165 2 -2 -5 -47 -15 -99z m1266 69 c-3 -7 -5 -2 -5 12 0 14 2 19 5 13 2 -7
2 -19 0 -25z m1152 -43 c-17 -38 -44 -107 -59 -154 -30 -89 -38 -95 -19 -13
11 46 99 245 106 239 2 -2 -11 -35 -28 -72z m-4178 8 c13 -16 12 -17 -3 -4
-10 7 -18 15 -18 17 0 8 8 3 21 -13z m460 -10 c-12 -20 -14 -14 -5 12 4 9 9
14 11 11 3 -2 0 -13 -6 -23z m2554 -23 c-4 -23 -9 -39 -11 -37 -3 2 -2 23 2
46 4 23 9 40 11 37 3 -3 2 -23 -2 -46z m202 -12 c-3 -8 -6 -5 -6 6 -1 11 2 17
5 13 3 -3 4 -12 1 -19z m-1921 -229 c-1 -193 -3 -222 -11 -173 -9 50 0 404 10
404 2 0 2 -104 1 -231z m1973 21 c11 -52 22 -126 25 -165 5 -66 5 -67 -5 -20
-46 239 -69 363 -68 371 1 15 27 -85 48 -186z m642 139 c-12 -19 -21 -30 -21
-26 0 12 33 67 38 63 1 -2 -6 -19 -17 -37z m-914 -6 c-3 -10 -5 -4 -5 12 0 17
2 24 5 18 2 -7 2 -21 0 -30z m-3198 -3 c11 -24 11 -24 -3 -6 -9 11 -16 24 -16
30 0 12 5 7 19 -24z m191 -15 c0 -22 -4 -25 -32 -24 -31 2 -31 2 -5 6 19 3 27
10 27 24 0 10 2 19 5 19 3 0 5 -11 5 -25z m700 -177 c-146 -169 -266 -300
-244 -269 29 43 383 441 391 441 2 0 -64 -78 -147 -172z m2297 150 c-3 -8 -6
-5 -6 6 -1 11 2 17 5 13 3 -3 4 -12 1 -19z m-3079 5 c-10 -2 -26 -2 -35 0 -10
3 -2 5 17 5 19 0 27 -2 18 -5z m951 -20 c-44 -57 -180 -216 -284 -333 -155
-174 -191 -220 -239 -308 -22 -40 -41 -70 -43 -68 -2 2 15 41 38 87 32 64 67
111 153 205 62 67 173 192 247 278 74 85 136 156 138 156 2 0 -3 -8 -10 -17z
m838 -55 c-2 -13 -4 -3 -4 22 0 25 2 35 4 23 2 -13 2 -33 0 -45z m1340 -82
c79 -132 271 -353 274 -316 1 8 5 -1 9 -20 5 -19 7 -36 6 -37 -1 -2 -52 51
-112 118 -80 88 -127 152 -176 237 -38 64 -68 123 -68 132 1 8 7 0 15 -19 9
-18 32 -61 52 -95z m2700 -131 c162 -250 171 -265 156 -250 -13 13 -108 156
-213 320 -110 172 -115 182 -103 170 6 -5 78 -113 160 -240z m-2797 203 c0 -7
-9 -24 -21 -38 l-20 -25 18 38 c18 39 23 45 23 25z m1147 -30 c-3 -8 -6 -5 -6
6 -1 11 2 17 5 13 3 -3 4 -12 1 -19z m-2412 -170 c-52 -406 -121 -752 -162
-811 -39 -56 -48 -56 -13 0 47 76 113 402 163 813 12 102 23 170 25 153 2 -17
-4 -87 -13 -155z m2566 155 c13 -16 12 -17 -3 -4 -17 13 -22 21 -14 21 2 0 10
-8 17 -17z m-1217 -87 c34 -60 26 -55 -18 11 -17 25 -36 48 -42 50 -6 2 -25
-19 -43 -47 -18 -27 -35 -50 -38 -50 -5 0 27 56 61 104 l20 29 15 -23 c9 -13
29 -46 45 -74z m-2753 -33 c-71 -142 -124 -266 -203 -473 -33 -85 -64 -159
-69 -165 -11 -11 11 51 117 320 64 163 195 435 210 435 2 0 -22 -53 -55 -117z
m3806 85 c-3 -7 -5 -2 -5 12 0 14 2 19 5 13 2 -7 2 -19 0 -25z m444 -288 l264
-300 177 -288 c98 -158 178 -291 178 -297 0 -5 -23 29 -52 75 -250 410 -317
505 -554 779 -87 102 -187 217 -222 258 -35 40 -62 73 -59 73 2 0 123 -135
268 -300z m-6 70 c84 -96 165 -191 181 -210 72 -91 -55 50 -316 350 -35 41
-54 66 -41 55 13 -11 92 -99 176 -195z m-1651 170 c-10 -16 -61 -71 -113 -122
l-95 -93 90 95 c50 53 99 108 109 123 23 36 31 34 9 -3z m1203 8 c-3 -8 -6 -5
-6 6 -1 11 2 17 5 13 3 -3 4 -12 1 -19z m-2700 -55 c-3 -10 -5 -4 -5 12 0 17
2 24 5 18 2 -7 2 -21 0 -30z m40 -15 c-3 -7 -5 -2 -5 12 0 14 2 19 5 13 2 -7
2 -19 0 -25z m2612 -122 c-18 -69 -36 -123 -40 -119 -4 5 9 63 28 130 20 68
38 121 40 119 2 -2 -10 -61 -28 -130z m-2674 -4 c-9 -53 -17 -98 -19 -99 -2
-2 -8 29 -15 68 -7 38 -10 73 -7 76 3 4 6 -3 6 -15 0 -47 20 -29 32 29 19 94
22 50 3 -59z m52 61 c-3 -10 -5 -2 -5 17 0 19 2 27 5 18 2 -10 2 -26 0 -35z
m1373 -39 c-34 -37 -65 -76 -70 -88 -8 -20 -9 -20 -9 -1 -1 16 123 155 137
155 3 0 -24 -30 -58 -66z m-1492 -64 c0 -22 -1 -22 -8 5 -4 17 -8 41 -8 55 0
22 1 22 8 -5 4 -16 8 -41 8 -55z m109 48 c-3 -7 -5 -2 -5 12 0 14 2 19 5 13 2
-7 2 -19 0 -25z m1953 -226 c0 -23 -3 -21 -29 19 -15 25 -56 79 -90 120 -62
73 -61 72 28 -20 66 -68 91 -101 91 -119z m-1963 161 c-3 -10 -5 -4 -5 12 0
17 2 24 5 18 2 -7 2 -21 0 -30z m-90 -35 c-3 -8 -6 -5 -6 6 -1 11 2 17 5 13 3
-3 4 -12 1 -19z m1360 -20 c-3 -8 -6 -5 -6 6 -1 11 2 17 5 13 3 -3 4 -12 1
-19z m40 -10 c-3 -7 -5 -2 -5 12 0 14 2 19 5 13 2 -7 2 -19 0 -25z m-50 -40
c-3 -7 -5 -2 -5 12 0 14 2 19 5 13 2 -7 2 -19 0 -25z m1340 10 c-3 -8 -6 -5
-6 6 -1 11 2 17 5 13 3 -3 4 -12 1 -19z m-1300 -20 c-3 -7 -5 -2 -5 12 0 14 2
19 5 13 2 -7 2 -19 0 -25z m-50 -40 c-3 -8 -6 -5 -6 6 -1 11 2 17 5 13 3 -3 4
-12 1 -19z m40 -10 c-3 -7 -5 -2 -5 12 0 14 2 19 5 13 2 -7 2 -19 0 -25z
m1290 0 c-3 -8 -6 -5 -6 6 -1 11 2 17 5 13 3 -3 4 -12 1 -19z m-1340 -45 c-3
-10 -5 -4 -5 12 0 17 2 24 5 18 2 -7 2 -21 0 -30z m40 -5 c-3 -7 -5 -2 -5 12
0 14 2 19 5 13 2 -7 2 -19 0 -25z m-50 -50 c-3 -7 -5 -2 -5 12 0 14 2 19 5 13
2 -7 2 -19 0 -25z m27 -108 c-15 -127 -21 -478 -11 -605 6 -63 5 -66 -4 -25
-6 25 -11 162 -11 305 -1 211 2 278 16 358 10 54 20 96 22 95 2 -2 -4 -60 -12
-128z m-2409 44 c-19 -42 -35 -79 -35 -82 0 -3 -2 -3 -5 0 -6 6 61 158 69 158
3 0 -10 -34 -29 -76z m3174 -88 c-1 -16 -49 136 -48 154 0 8 11 -21 25 -64 13
-44 24 -85 23 -90z m-3132 77 c-13 -26 -38 -85 -57 -131 -18 -45 -36 -85 -41
-87 -4 -3 4 23 17 57 38 94 97 219 101 214 3 -2 -6 -26 -20 -53z m2330 35 c-3
-8 -6 -5 -6 6 -1 11 2 17 5 13 3 -3 4 -12 1 -19z m-480 -45 c-20 -2 -52 -2
-70 0 -17 2 0 4 38 4 39 0 53 -2 32 -4z m-98 -42 c-103 -6 -122 -15 -229 -99
-28 -22 -37 -27 -25 -12 11 12 53 45 94 72 l74 48 91 -2 91 -1 -96 -6z m3036
-258 c114 -186 127 -211 150 -302 14 -55 25 -106 24 -113 0 -7 -14 37 -30 98
-27 105 -35 122 -160 325 -72 118 -133 219 -136 224 -17 37 46 -60 152 -232z
m-4884 200 c-12 -20 -14 -14 -5 12 4 9 9 14 11 11 3 -2 0 -13 -6 -23z m-206
-2 c-11 -5 -36 -11 -55 -14 -35 -6 -34 -6 5 8 43 14 84 19 50 6z m1642 -23
c-3 -8 -6 -5 -6 6 -1 11 2 17 5 13 3 -3 4 -12 1 -19z m508 -3 c30 -14 29 -14
-15 -7 -121 18 -209 1 -235 -47 -10 -18 -14 -21 -15 -9 0 9 17 30 38 47 34 28
42 30 117 30 47 0 92 -6 110 -14z m201 -80 c50 -108 59 -143 11 -45 -18 36
-38 64 -45 63 -7 -2 -12 7 -12 20 0 16 -9 27 -27 34 l-28 12 29 -6 c20 -4 27
-3 22 6 -4 6 -4 11 -1 11 4 0 26 -43 51 -95z m1101 73 c-3 -8 -6 -5 -6 6 -1
11 2 17 5 13 3 -3 4 -12 1 -19z m-3548 8 c-7 -7 -210 -58 -214 -54 -3 2 39 16
93 30 93 25 130 32 121 24z m270 -60 c-12 -31 -24 -55 -26 -53 -2 2 6 30 18
61 12 31 24 55 26 53 2 -2 -6 -30 -18 -61z m1601 51 c0 -2 -12 -14 -27 -28
l-28 -24 24 28 c23 25 31 32 31 24z m494 -38 c19 -18 0 -16 -29 3 -27 18 -28
19 -5 13 14 -4 29 -11 34 -16z m-3368 -36 c-8 -15 -15 -25 -16 -21 0 12 23 58
27 54 3 -2 -2 -17 -11 -33z m759 17 c-11 -5 -27 -9 -35 -9 -9 0 -8 4 5 9 11 5
27 9 35 9 9 0 8 -4 -5 -9z m2116 -52 l-5 -63 -6 50 c-6 40 1 75 14 75 0 0 -1
-28 -3 -62z m2329 48 c0 -2 -7 -6 -15 -10 -8 -3 -15 -1 -15 4 0 6 7 10 15 10
8 0 15 -2 15 -4z m-4271 -11 c-6 -5 -279 -65 -293 -64 -17 2 246 67 273 68 13
0 22 -1 20 -4z m2488 -17 c-3 -8 -6 -5 -6 6 -1 11 2 17 5 13 3 -3 4 -12 1 -19z
m1798 -78 c14 -40 23 -75 21 -77 -2 -2 -14 26 -26 64 -13 37 -25 75 -28 83 -3
8 -2 12 1 9 4 -3 18 -39 32 -79z m-1828 18 c-3 -7 -5 -2 -5 12 0 14 2 19 5 13
2 -7 2 -19 0 -25z m-3022 6 c-62 -11 -85 -20 -102 -40 -14 -15 -23 -20 -23
-11 0 29 27 46 85 55 95 15 128 11 40 -4z m545 2 c0 -3 -46 -31 -102 -62 -57
-32 -129 -75 -160 -96 -32 -21 -58 -35 -58 -30 0 15 15 25 170 111 152 85 150
84 150 77z m2105 -44 c17 -10 17 -11 3 -12 -19 0 -58 37 -58 54 0 6 8 1 18
-10 9 -12 26 -26 37 -32z m2304 -142 c33 -85 59 -156 57 -157 -7 -8 -138 326
-135 346 1 9 13 -21 78 -189z m-5379 131 c-28 -56 -35 -52 -8 4 12 24 23 43
26 41 2 -2 -6 -22 -18 -45z m4921 -85 c-33 -69 -62 -126 -65 -126 -3 0 20 53
50 118 31 64 58 123 61 130 3 7 7 11 10 9 2 -3 -23 -61 -56 -131z m-2191 99
c-7 -8 -30 -48 -52 -88 -22 -39 -36 -63 -32 -52 25 70 32 86 57 119 16 20 31
36 34 36 3 0 0 -7 -7 -15z m705 -5 c-3 -5 -11 -10 -16 -10 -6 0 -7 5 -4 10 3
6 11 10 16 10 6 0 7 -4 4 -10z m-2995 -25 c0 -6 -162 -86 -166 -82 -2 1 -1 13
3 26 4 16 8 19 14 10 5 -9 24 -5 76 19 77 35 73 34 73 27z m1325 -119 c-64
-69 -164 -168 -223 -222 -68 -62 -28 -17 113 124 121 122 221 222 223 222 2 0
-48 -56 -113 -124z m1843 -1 c0 -29 0 -29 -8 5 -4 19 -14 52 -23 74 -25 58
-19 58 8 1 13 -27 24 -63 23 -80z m-552 80 c15 -20 25 -38 22 -40 -3 -3 -17
13 -32 35 -33 49 -27 52 10 5z m-1486 -211 c-227 -227 -241 -240 -412 -355
-98 -66 -178 -117 -178 -115 0 3 57 44 127 92 180 122 248 180 482 410 113
112 208 203 211 204 3 0 -101 -106 -230 -236z m1850 227 c0 -5 -9 -19 -19 -32
-16 -19 -22 -22 -32 -11 -11 10 -9 12 10 12 14 0 21 5 19 13 -6 15 -249 22
-277 8 -14 -8 -22 -7 -31 4 -11 13 9 15 159 15 94 0 171 -4 171 -9z m-835 -68
c-64 -85 -218 -234 -297 -290 -90 -63 -106 -64 -20 -2 75 55 176 151 271 255
41 46 77 84 79 84 1 0 -13 -21 -33 -47z m568 30 c-7 -2 -21 -2 -30 0 -10 3 -4
5 12 5 17 0 24 -2 18 -5z m497 -28 c0 -5 -5 -3 -10 5 -5 8 -10 20 -10 25 0 6
5 3 10 -5 5 -8 10 -19 10 -25z m-2300 -40 c0 -3 -22 6 -50 20 -27 14 -50 28
-50 30 0 3 23 -6 50 -20 28 -14 50 -28 50 -30z m-224 -54 c-85 -85 -130 -119
-322 -242 -162 -105 -222 -148 -218 -159 4 -12 3 -13 -7 -2 -17 16 -25 9 186
149 184 122 352 251 414 317 19 20 37 36 40 36 3 0 -39 -45 -93 -99z m1994 57
c0 -6 -7 -5 -15 2 -8 7 -15 17 -15 22 0 6 7 5 15 -2 8 -7 15 -17 15 -22z m210
23 c0 -6 -3 -11 -7 -11 -16 -1 -149 -2 -160 -1 -7 1 -13 5 -13 10 0 4 41 9 90
10 57 1 90 -2 90 -8z m72 -3 c-6 -7 -25 -22 -44 -32 -39 -23 -32 -13 14 20 38
26 45 29 30 12z m-2045 -74 c-3 -3 -28 6 -56 21 l-52 26 -27 -20 c-15 -10 -43
-36 -62 -56 -19 -20 -44 -41 -55 -47 -11 -5 16 24 60 65 l80 75 59 -30 c32
-16 56 -32 53 -34z m3422 -56 c11 -27 18 -48 15 -48 -7 0 -59 117 -68 150 -6
25 14 -14 53 -102z m-1494 102 c-3 -5 -18 -9 -33 -9 l-27 1 30 8 c17 4 31 8
33 9 2 0 0 -3 -3 -9z m-2575 -21 c32 -7 31 -7 -14 -6 -33 1 -51 7 -54 16 -4
11 0 12 14 6 11 -4 35 -11 54 -16z m1850 -60 c-16 -35 -28 -55 -25 -44 2 11 6
33 9 49 5 26 35 71 43 63 2 -2 -10 -33 -27 -68z m760 56 c0 -2 -10 -9 -22 -15
-22 -11 -22 -10 -4 4 21 17 26 19 26 11z m-1930 -15 c0 -5 -5 -10 -11 -10 -5
0 -7 5 -4 10 3 6 8 10 11 10 2 0 4 -4 4 -10z m1607 -15 c59 -35 54 -41 -7 -10
-46 23 -60 35 -43 35 3 0 26 -11 50 -25z m-2193 -32 c-44 -77 -93 -153 -99
-153 -2 0 23 45 56 100 62 101 94 140 43 53z m2456 37 c18 -12 2 -12 -25 0
-13 6 -15 9 -5 9 8 0 22 -4 30 -9z m2110 -25 c0 -5 -5 -3 -10 5 -5 8 -10 20
-10 25 0 6 5 3 10 -5 5 -8 10 -19 10 -25z m-4705 5 c-3 -5 -11 -10 -16 -10 -5
0 -51 -28 -102 -61 -112 -75 -104 -63 13 20 78 55 120 76 105 51z m87 -22 c-8
-8 -9 -4 -5 13 4 13 8 18 11 10 2 -7 -1 -18 -6 -23z m2838 -10 c0 -5 -11 -1
-25 8 -14 9 -25 18 -25 20 0 2 11 -2 25 -8 14 -6 25 -15 25 -20z m-501 -78
l35 -45 -46 47 c-26 26 -65 56 -87 68 -23 11 -41 23 -41 26 0 17 109 -58 139
-96z m457 58 l29 -32 -29 22 c-16 12 -40 22 -55 23 -23 0 -24 1 -6 9 29 13 29
13 61 -22z m1864 -49 c25 -58 36 -108 51 -234 11 -88 18 -169 16 -180 -3 -13
-5 -9 -6 10 -6 127 -54 363 -96 470 -5 11 -5 17 -2 14 4 -3 20 -39 37 -80z
m937 49 c-3 -8 -6 -5 -6 6 -1 11 2 17 5 13 3 -3 4 -12 1 -19z m-2915 -8 c-18
-11 -35 -20 -38 -20 -12 0 10 22 30 30 38 15 42 10 8 -10z m-62 7 c0 -2 -17
-19 -37 -38 l-38 -34 34 38 c33 34 41 42 41 34z m-201 -92 c34 -41 69 -75 76
-75 9 0 12 -6 8 -15 -6 -16 -28 6 -116 117 -62 77 -36 55 32 -27z m-645 41
c-3 -9 -16 -16 -28 -15 -21 0 -21 0 2 9 12 5 22 15 22 21 0 7 2 10 5 7 3 -3 3
-13 -1 -22z m-1836 -27 c-13 -23 -43 -62 -66 -88 l-44 -46 35 45 c19 25 47 64
62 88 35 54 43 54 13 1z m1192 -78 c-34 -50 -64 -91 -67 -91 -6 0 12 29 76
121 25 37 48 65 50 64 1 -2 -25 -44 -59 -94z m4487 77 c-3 -8 -6 -5 -6 6 -1
11 2 17 5 13 3 -3 4 -12 1 -19z m-4539 -79 c-51 -74 -71 -95 -106 -110 -53
-23 -68 -24 -27 -2 44 23 71 50 131 131 30 39 57 72 59 72 3 0 -23 -41 -57
-91z m1520 74 c-9 -10 -23 -31 -32 -48 -15 -26 -16 -27 -10 -5 3 14 16 35 27
48 24 26 37 30 15 5z m-2898 3 c0 -3 -15 -14 -32 -26 l-33 -22 30 26 c31 27
35 29 35 22z m2030 -35 c0 -42 -13 -79 -25 -75 -10 4 -10 12 3 34 13 22 14 32
5 41 -31 31 -146 -31 -313 -167 -84 -69 -133 -104 -100 -72 49 47 158 134 240
192 84 59 100 66 143 66 39 0 47 -3 47 -19z m3897 -3 c-3 -8 -6 -5 -6 6 -1 11
2 17 5 13 3 -3 4 -12 1 -19z m-3236 -5 c13 -16 12 -17 -3 -4 -17 13 -22 21
-14 21 2 0 10 -8 17 -17z m749 -238 c13 -33 29 -68 38 -78 8 -9 13 -19 10 -22
-21 -21 -102 196 -112 300 -5 53 -3 48 18 -40 13 -55 34 -127 46 -160z m-3530
213 c-14 -11 -24 -25 -22 -30 1 -5 -3 -6 -9 -2 -9 5 -3 15 17 31 36 29 48 30
14 1z m548 -1 c-38 -30 -289 -190 -293 -185 -3 3 306 206 315 207 3 0 -7 -10
-22 -22z m1607 -27 c-7 -25 -14 -38 -14 -29 -1 18 20 82 25 77 2 -2 -3 -24
-11 -48z m3912 28 c-3 -8 -6 -5 -6 6 -1 11 2 17 5 13 3 -3 4 -12 1 -19z m-40
-10 c-3 -8 -6 -5 -6 6 -1 11 2 17 5 13 3 -3 4 -12 1 -19z m-3192 -28 c10 -11
16 -20 13 -20 -3 0 -13 9 -23 20 -10 11 -16 20 -13 20 3 0 13 -9 23 -20z
m3294 -210 c-1 -8 -14 35 -30 95 -16 61 -28 117 -28 125 1 8 14 -34 30 -95 16
-60 28 -117 28 -125z m-4289 217 c0 -2 -10 -12 -22 -23 l-23 -19 19 23 c18 21
26 27 26 19z m4197 -19 c-3 -8 -6 -5 -6 6 -1 11 2 17 5 13 3 -3 4 -12 1 -19z
m1413 -8 c6 -11 8 -20 6 -20 -3 0 -10 9 -16 20 -6 11 -8 20 -6 20 3 0 10 -9
16 -20z m-7410 -20 c8 -5 11 -10 5 -10 -5 0 -17 5 -25 10 -8 5 -10 10 -5 10 6
0 17 -5 25 -10z m151 -24 c-22 -23 -39 -32 -52 -29 -30 8 -31 20 -1 15 19 -2
34 4 51 22 14 14 27 26 30 26 3 0 -10 -15 -28 -34z m1599 30 c0 -13 -173 -148
-230 -181 -36 -21 -80 -46 -97 -57 -18 -11 -33 -17 -33 -15 0 3 44 32 98 66
53 33 133 89 177 125 85 68 85 69 85 62z m4257 -18 c-3 -8 -6 -5 -6 6 -1 11 2
17 5 13 3 -3 4 -12 1 -19z m-3822 -50 c49 -25 101 -60 158 -108 7 -6 38 -330
36 -385 -1 -16 -9 47 -19 141 -24 225 -29 243 -82 281 -42 30 -196 113 -210
113 -4 0 -12 -25 -19 -55 -16 -74 -24 -63 -9 13 l12 60 37 -15 c20 -8 63 -29
96 -45z m5363 -152 c61 -104 108 -195 105 -203 -3 -8 -14 5 -28 35 -13 27 -62
118 -110 203 -106 187 -100 176 -88 164 6 -5 60 -95 121 -199z m-1531 162 c-3
-8 -6 -5 -6 6 -1 11 2 17 5 13 3 -3 4 -12 1 -19z m-5637 -1 c-24 -22 -126 -92
-114 -78 13 14 116 90 124 91 2 0 -2 -6 -10 -13z m1605 -122 c-23 -119 -35
-162 -35 -121 0 9 11 68 25 132 14 64 25 118 25 121 0 4 2 4 5 1 3 -2 -6 -62
-20 -133z m-755 101 c0 -12 -277 -93 -287 -83 -2 2 36 14 84 27 49 13 111 31
138 41 52 18 65 21 65 15z m4930 -598 c7 -54 10 -102 6 -105 -3 -4 -6 7 -6 23
0 37 -60 335 -105 523 -19 79 -35 148 -34 155 3 29 129 -509 139 -596z m-5775
572 c-8 -13 -165 -123 -170 -119 -3 4 164 128 173 129 2 0 1 -4 -3 -10z m2117
-102 c96 -49 108 -53 175 -53 39 0 66 -3 60 -7 -24 -15 -118 -7 -190 15 -52
17 -96 41 -150 82 -84 63 -99 79 -38 40 22 -13 86 -48 143 -77z m2605 60 c-3
-8 -6 -5 -6 6 -1 11 2 17 5 13 3 -3 4 -12 1 -19z m-4317 -2 c0 -2 -45 -37
-101 -76 -126 -90 -166 -125 -185 -162 -14 -27 -14 -32 1 -54 l16 -25 -25 16
c-32 21 -32 30 2 83 19 31 63 68 157 132 135 93 135 93 135 86z m1237 -28 c-3
-7 -5 -2 -5 12 0 14 2 19 5 13 2 -7 2 -19 0 -25z m-2032 -70 c-89 -91 -90 -92
-204 -133 -176 -64 -216 -87 -250 -147 -32 -56 -32 -67 2 -69 13 -1 8 -4 -13
-8 -19 -4 -36 -6 -38 -5 -9 6 71 146 91 158 12 7 88 38 170 67 147 54 147 54
219 126 40 40 75 73 77 73 3 0 -21 -28 -54 -62z m5122 30 c-3 -7 -5 -2 -5 12
0 14 2 19 5 13 2 -7 2 -19 0 -25z m-3108 -57 c-7 -39 -14 -69 -17 -67 -2 3 2
37 9 75 7 39 14 69 17 67 2 -3 -2 -37 -9 -75z m1475 20 c-7 -7 -12 3 -19 34
l-6 30 14 -30 c8 -16 13 -32 11 -34z m2613 37 c-3 -8 -6 -5 -6 6 -1 11 2 17 5
13 3 -3 4 -12 1 -19z m-4857 9 c0 -2 -19 -21 -42 -42 l-43 -40 40 43 c36 39
45 47 45 39z m275 -23 c-11 -8 -46 -29 -77 -46 l-58 -31 0 -109 0 -110 -89
-101 c-49 -56 -99 -113 -111 -127 -12 -14 -3 2 18 35 22 33 68 87 102 120 l61
60 -2 114 -1 114 83 48 c86 50 110 60 74 33z m3325 -45 c80 -65 216 -170 239
-184 12 -7 13 9 8 96 l-5 104 13 -100 c7 -55 14 -110 14 -123 1 -19 -29 2
-175 119 l-177 142 -70 -38 c-38 -21 -67 -33 -63 -26 8 12 114 70 131 71 6 0
44 -28 85 -61z m1267 19 c-3 -8 -6 -5 -6 6 -1 11 2 17 5 13 3 -3 4 -12 1 -19z
m728 -14 c9 -15 12 -23 6 -20 -11 7 -35 46 -28 46 3 0 12 -12 22 -26z m-3750
-5 c-104 -4 -221 -12 -259 -18 -81 -14 -101 -7 -24 8 72 14 126 17 313 18
l160 0 -190 -8z m2042 -41 c-2 -13 -4 -5 -4 17 -1 22 1 32 4 23 2 -10 2 -28 0
-40z m-3802 23 c-20 -17 -192 -129 -265 -171 -41 -24 -107 -65 -147 -92 -40
-26 -74 -48 -77 -48 -3 0 0 14 6 31 7 22 13 27 19 18 8 -13 138 61 374 213 85
55 111 69 90 49z m2193 -7 c2 -1 2 -11 0 -22 -3 -18 -5 -17 -29 9 l-26 29 26
-7 c14 -3 27 -7 29 -9z m-936 -1 c-10 -4 -12 -45 -9 -197 4 -145 3 -164 -3
-76 -4 63 -8 152 -9 198 -1 72 1 82 17 81 11 0 12 -2 4 -6z m2028 -26 c0 -7
-19 -31 -42 -52 l-42 -40 32 41 c18 23 32 47 32 53 0 6 5 11 10 11 6 0 10 -6
10 -13z m-1053 -34 c-3 -10 -5 -4 -5 12 0 17 2 24 5 18 2 -7 2 -21 0 -30z
m1580 -45 c-2 -13 -4 -3 -4 22 0 25 2 35 4 23 2 -13 2 -33 0 -45z m1726 -66
c42 -91 58 -139 62 -185 l5 -62 -19 75 c-11 41 -40 124 -65 184 -43 102 -52
125 -42 115 2 -2 29 -59 59 -127z m-4856 96 c-3 -8 -6 -5 -6 6 -1 11 2 17 5
13 3 -3 4 -12 1 -19z m-1576 -40 c-23 -42 -36 -54 -58 -56 l-28 -3 33 21 c18
11 42 36 53 55 12 19 23 35 26 35 2 0 -9 -24 -26 -52z m1609 -67 c11 -46 19
-85 17 -88 -4 -3 -47 156 -47 173 0 20 11 -10 30 -85z m-1995 71 c-6 -5 -66
-40 -135 -79 -89 -50 -139 -72 -175 -76 l-50 -7 60 20 c33 11 114 49 180 85
118 63 138 73 120 57z m971 -1 c-3 -5 -30 -23 -60 -39 -29 -17 -63 -43 -75
-58 -11 -15 -21 -22 -21 -16 0 19 35 51 95 86 65 39 69 41 61 27z m1024 -237
c34 -126 64 -242 68 -259 6 -27 1 -36 -42 -80 -52 -52 -51 -47 3 21 l33 42
-37 143 c-41 163 -73 269 -86 284 -9 9 -13 92 -4 84 2 -3 32 -108 65 -235z
m-1430 181 c-24 -25 -45 -45 -46 -45 0 0 -9 10 -20 22 -15 18 -15 20 -2 9 15
-11 23 -8 60 23 58 48 61 45 8 -9z m2901 -26 c-5 -30 -9 -42 -10 -28 -1 30 10
92 15 86 3 -2 0 -28 -5 -58z m1734 -189 c44 -44 88 -80 98 -80 26 0 91 35 181
97 l78 55 79 -22 c44 -13 78 -25 75 -27 -2 -3 -36 5 -75 17 l-71 21 -87 -59
c-49 -33 -112 -71 -141 -86 l-53 -27 -82 87 c-45 48 -85 92 -88 98 -4 6 -9 49
-12 96 l-5 85 11 -87 12 -88 80 -80z m1771 128 c80 -134 76 -128 71 -128 -3 0
-31 44 -62 98 -32 53 -65 107 -73 120 -8 12 -12 22 -9 22 3 0 36 -51 73 -112z
m-7026 63 c-25 -15 -68 -42 -97 -60 -29 -18 -69 -46 -90 -63 l-38 -30 60 6 60
5 -65 -14 c-35 -9 -68 -14 -73 -12 -18 6 87 89 178 142 95 56 142 75 65 26z
m4003 -4 c26 -11 46 -21 44 -23 -4 -4 -129 45 -137 53 -8 8 39 -7 93 -30z
m-2160 -205 c-87 -139 -113 -172 -232 -292 -111 -112 -120 -119 -50 -41 132
146 205 236 260 317 58 87 108 188 111 224 1 14 3 9 5 -13 4 -33 -7 -55 -94
-195z m5810 190 c-4 -18 -12 -22 -42 -21 -30 2 -31 3 -8 6 15 2 32 13 38 25
13 25 20 19 12 -10z m-7443 -113 c-17 -41 -34 -77 -39 -82 -4 -4 -20 11 -35
35 l-27 43 29 -34 c34 -39 31 -42 72 62 12 32 24 56 26 54 2 -2 -10 -37 -26
-78z m3297 24 c-3 -10 -5 -2 -5 17 0 19 2 27 5 18 2 -10 2 -26 0 -35z m679
-53 c37 -49 71 -90 75 -90 4 0 33 36 63 80 31 44 59 80 62 80 3 0 -23 -40 -57
-90 -34 -49 -65 -90 -68 -90 -3 1 -33 37 -66 81 -83 112 -88 119 -82 119 3 0
36 -40 73 -90z m-639 48 c-3 -7 -5 -2 -5 12 0 14 2 19 5 13 2 -7 2 -19 0 -25z
m4010 -20 c-2 -13 -4 -5 -4 17 -1 22 1 32 4 23 2 -10 2 -28 0 -40z m-7934 35
c-7 -2 -19 -2 -25 0 -7 3 -2 5 12 5 14 0 19 -2 13 -5z m2454 -15 c-3 -8 -6 -5
-6 6 -1 11 2 17 5 13 3 -3 4 -12 1 -19z m1790 -10 c-3 -7 -5 -2 -5 12 0 14 2
19 5 13 2 -7 2 -19 0 -25z m-1470 -50 c-2 -13 -4 -5 -4 17 -1 22 1 32 4 23 2
-10 2 -28 0 -40z m-299 -13 c0 -16 -2 -15 -8 5 -11 34 -11 60 0 35 5 -11 8
-29 8 -40z m1392 -50 l-13 -95 -89 -110 c-49 -61 -91 -110 -94 -110 -3 0 23
35 56 78 34 42 73 94 86 115 25 39 53 145 54 201 0 16 3 26 6 23 4 -3 1 -49
-6 -102z m47 48 c-3 -10 -5 -2 -5 17 0 19 2 27 5 18 2 -10 2 -26 0 -35z m351
-33 c0 -22 -1 -22 -8 5 -4 17 -8 41 -8 55 0 22 1 22 8 -5 4 -16 8 -41 8 -55z
m3658 -135 c-2 -7 -25 -18 -50 -25 l-47 -13 7 -71 c6 -62 3 -78 -15 -115 -23
-44 -82 -81 -126 -80 -16 1 -15 2 5 8 95 29 133 88 128 197 l-3 67 40 13 c21
8 43 20 47 27 4 6 9 53 10 102 l2 90 3 -94 c2 -52 2 -100 -1 -106z m-1721 175
c13 -5 14 -9 5 -9 -8 0 -24 4 -35 9 -13 5 -14 9 -5 9 8 0 24 -4 35 -9z m-3946
-47 c-63 -104 -111 -176 -105 -159 8 23 117 196 123 196 3 0 -6 -17 -18 -37z
m1648 -25 c-3 -7 -5 -2 -5 12 0 14 2 19 5 13 2 -7 2 -19 0 -25z m3420 -15 c-3
-10 -5 -4 -5 12 0 17 2 24 5 18 2 -7 2 -21 0 -30z m-4830 5 c-3 -8 -6 -5 -6 6
-1 11 2 17 5 13 3 -3 4 -12 1 -19z m480 -120 c-2 -29 -3 -8 -3 47 0 55 1 79 3
53 2 -26 2 -71 0 -100z m1300 100 c-3 -7 -5 -2 -5 12 0 14 2 19 5 13 2 -7 2
-19 0 -25z m-1490 -15 c-3 -10 -5 -4 -5 12 0 17 2 24 5 18 2 -7 2 -21 0 -30z
m3682 -17 c41 -25 78 -43 82 -40 5 3 10 17 11 32 0 16 3 9 7 -18 4 -25 5 -47
4 -49 -3 -5 -193 119 -193 126 0 2 3 2 8 0 4 -3 40 -26 81 -51z m-7454 -44
c-25 -49 -52 -97 -61 -108 -9 -10 -5 1 9 26 13 25 39 73 56 108 17 34 34 62
37 62 3 0 -16 -40 -41 -88z m3492 56 c-3 -8 -6 -5 -6 6 -1 11 2 17 5 13 3 -3
4 -12 1 -19z m-963 -1 c-7 -19 22 -40 99 -72 37 -15 67 -30 67 -32 0 -7 -41 8
-118 43 -67 31 -72 35 -62 54 12 22 22 27 14 7z m2743 -29 c-3 -8 -6 -5 -6 6
-1 11 2 17 5 13 3 -3 4 -12 1 -19z m2320 0 c-3 -8 -6 -5 -6 6 -1 11 2 17 5 13
3 -3 4 -12 1 -19z m728 -86 c-4 -35 -9 -62 -11 -59 -3 2 -1 42 3 88 4 46 9 73
11 60 2 -14 1 -54 -3 -89z m-4538 16 c-2 -13 -4 -3 -4 22 0 25 2 35 4 23 2
-13 2 -33 0 -45z m1000 -70 c-85 -111 -81 -102 -88 -193 l-6 -80 -1 84 -2 84
75 93 c42 52 78 94 81 94 3 0 -24 -37 -59 -82z m2820 45 c-3 -10 -5 -4 -5 12
0 17 2 24 5 18 2 -7 2 -21 0 -30z m-3810 -55 c-3 -7 -5 -2 -5 12 0 14 2 19 5
13 2 -7 2 -19 0 -25z m1572 -39 c23 -34 41 -70 41 -80 0 -12 -15 -26 -42 -39
-26 -13 -35 -15 -23 -5 63 49 63 49 10 125 -44 63 -50 74 -37 66 6 -3 29 -34
51 -67z m2248 14 c-3 -10 -5 -2 -5 17 0 19 2 27 5 18 2 -10 2 -26 0 -35z
m-4843 -33 l7 -25 -14 25 c-8 14 -17 36 -21 50 l-7 25 14 -25 c8 -14 17 -36
21 -50z m773 28 c-3 -7 -5 -2 -5 12 0 14 2 19 5 13 2 -7 2 -19 0 -25z m-393
-28 c4 -31 3 -40 -4 -30 -5 8 -10 30 -10 49 0 45 6 37 14 -19z m361 14 c3 -20
4 -39 1 -42 -3 -3 -6 4 -6 16 0 37 -17 33 -71 -16 l-54 -47 55 63 c30 34 57
62 61 62 4 0 10 -16 14 -36z m4792 -1 c-3 -10 -5 -4 -5 12 0 17 2 24 5 18 2
-7 2 -21 0 -30z m-4750 -25 c-3 -8 -6 -5 -6 6 -1 11 2 17 5 13 3 -3 4 -12 1
-19z m540 -55 c-2 -16 -4 -3 -4 27 0 30 2 43 4 28 2 -16 2 -40 0 -55z m3530
25 c-2 -13 -4 -5 -4 17 -1 22 1 32 4 23 2 -10 2 -28 0 -40z m1011 -17 c5 -34
6 -58 2 -54 -8 9 -23 130 -15 122 2 -3 9 -33 13 -68z m-4661 -23 c-2 -18 -4
-6 -4 27 0 33 2 48 4 33 2 -15 2 -42 0 -60z m182 -1028 c13 -81 42 -137 88
-167 36 -23 111 -21 163 5 45 22 54 15 12 -10 -15 -9 -56 -20 -90 -24 -56 -6
-66 -4 -101 19 -22 15 -49 46 -64 74 l-25 49 -13 420 c-7 270 -9 476 -3 579 8
142 9 103 15 -355 4 -303 11 -546 18 -590z m-581 1015 c0 -16 -2 -15 -8 5 -4
14 -8 34 -8 45 0 16 2 15 8 -5 4 -14 8 -34 8 -45z m241 -149 c1 -71 -1 -127
-3 -125 -2 2 -5 81 -8 174 -3 94 -1 150 3 125 4 -25 8 -103 8 -174z m838 132
c-2 -18 -4 -6 -4 27 0 33 2 48 4 33 2 -15 2 -42 0 -60z m-1130 50 c-3 -8 -6
-5 -6 6 -1 11 2 17 5 13 3 -3 4 -12 1 -19z m4880 -80 l96 -83 67 -140 c45 -94
64 -142 56 -147 -6 -4 -31 -7 -56 -7 l-45 1 45 10 c25 6 46 11 48 13 2 2 -24
58 -58 124 -63 124 -108 180 -215 269 -27 23 -46 41 -42 42 5 0 51 -37 104
-82z m-720 -373 c-3 -22 -46 297 -52 390 -3 33 9 -37 25 -155 16 -118 29 -224
27 -235z m-4150 413 c-3 -8 -6 -5 -6 6 -1 11 2 17 5 13 3 -3 4 -12 1 -19z
m-737 -4 c0 -14 3 -14 18 -4 9 7 2 -2 -16 -19 -19 -18 -36 -31 -38 -29 -6 7
20 68 28 68 4 0 8 -7 8 -16z m290 -78 c-56 -88 -113 -165 -71 -96 77 128 116
188 120 185 2 -3 -20 -42 -49 -89z m204 32 c-61 -87 -220 -222 -274 -232 -30
-6 -27 -3 20 19 41 19 85 57 170 145 63 65 117 119 118 119 2 1 -13 -23 -34
-51z m253 0 c-3 -7 -5 -2 -5 12 0 14 2 19 5 13 2 -7 2 -19 0 -25z m40 0 c-3
-7 -5 -2 -5 12 0 14 2 19 5 13 2 -7 2 -19 0 -25z m1728 24 c-17 -15 -105 -63
-105 -58 0 3 24 19 53 36 52 30 69 37 52 22z m-1718 -64 c-3 -8 -6 -5 -6 6 -1
11 2 17 5 13 3 -3 4 -12 1 -19z m1050 -155 c-2 -27 -3 -5 -3 47 0 52 1 74 3
48 2 -27 2 -69 0 -95z m40 -15 c-2 -29 -3 -6 -3 52 0 58 1 81 3 53 2 -29 2
-77 0 -105z m-700 35 c-2 -21 -4 -4 -4 37 0 41 2 58 4 38 2 -21 2 -55 0 -75z
m4638 -8 c46 -56 47 -58 11 -25 -28 25 -35 29 -27 13 6 -12 11 -25 11 -30 -1
-10 -59 99 -60 112 0 10 -1 12 65 -70z m-5655 -22 c-20 -25 -20 -28 -3 -34 14
-5 12 -7 -11 -13 -16 -4 -30 -5 -32 -3 -4 4 55 77 62 77 3 0 -4 -12 -16 -27z
m2008 -45 c-8 -13 -25 -40 -37 -61 -13 -21 -26 -36 -29 -33 -5 6 66 116 75
116 3 0 -1 -10 -9 -22z m-342 -170 c-5 -126 -14 -185 -47 -333 -23 -99 -48
-191 -55 -205 -16 -28 -17 -33 16 88 38 138 80 426 80 553 0 27 3 49 7 49 3 0
3 -69 -1 -152z m4075 135 c13 -16 12 -17 -3 -4 -10 7 -18 15 -18 17 0 8 8 3
21 -13z m-593 -17 c68 -34 107 -45 213 -60 56 -8 78 -14 54 -15 -95 -1 -184
18 -262 58 -43 22 -72 40 -65 41 7 0 34 -11 60 -24z m-4471 -73 c-2 -16 -4 -3
-4 27 0 30 2 43 4 28 2 -16 2 -40 0 -55z m1035 -146 c3 -135 1 -154 -10 -128
-9 23 -10 72 -5 194 9 179 11 168 15 -66z m4037 128 c6 -3 16 -16 22 -28 9
-18 5 -16 -21 8 -29 28 -70 93 -70 112 0 4 14 -13 30 -39 16 -25 34 -49 39
-53z m81 -1 c39 -47 80 -105 91 -128 16 -33 16 -36 2 -16 -10 14 -53 71 -95
128 -42 56 -75 102 -73 102 2 0 36 -39 75 -86z m-1002 69 c-9 -2 -33 -42 -55
-90 -22 -49 -39 -78 -41 -68 -2 10 0 20 5 24 5 3 17 26 27 51 25 64 44 90 64
89 15 -1 15 -2 0 -6z m98 -29 c38 -14 91 -32 119 -39 41 -11 45 -14 19 -14
-24 -1 -198 60 -213 75 -9 8 9 3 75 -22z m214 -29 c26 -31 -7 -14 -41 22 l-34
36 31 -21 c17 -12 37 -28 44 -37z m-4113 -72 c-2 -21 -4 -4 -4 37 0 41 2 58 4
38 2 -21 2 -55 0 -75z m973 41 c0 -3 -13 4 -30 16 -16 12 -30 24 -30 26 0 3
14 -4 30 -16 17 -12 30 -24 30 -26z m2727 -21 c-3 -10 -5 -2 -5 17 0 19 2 27
5 18 2 -10 2 -26 0 -35z m-2696 0 c13 -16 12 -17 -3 -4 -10 7 -18 15 -18 17 0
8 8 3 21 -13z m144 -105 c55 -42 115 -92 134 -112 l34 -35 -49 -21 c-27 -12
-65 -28 -84 -37 -69 -29 -220 -51 -305 -44 l-80 7 135 6 c143 7 256 34 329 79
35 21 35 21 14 38 -180 144 -293 239 -243 205 8 -6 60 -45 115 -86z m-1472
-88 l6 -55 -14 50 c-7 28 -13 79 -13 115 l1 65 7 -60 c4 -33 10 -85 13 -115z
m161 -147 l-6 -93 -26 20 c-73 58 -113 103 -118 133 -5 31 -5 30 14 -9 23 -48
103 -119 114 -101 4 7 8 91 9 187 l2 175 9 -110 c5 -60 6 -152 2 -202z m186 8
c6 -51 15 -103 21 -115 l11 -21 -21 21 c-20 19 -22 32 -25 175 -2 85 -2 127 0
94 2 -33 8 -102 14 -154z m4861 192 c13 -16 12 -17 -3 -4 -10 7 -18 15 -18 17
0 8 8 3 21 -13z m149 -281 c0 -31 -3 -52 -7 -48 -4 4 -6 24 -4 44 3 42 -32
145 -58 171 -9 9 -29 35 -45 56 -24 33 -25 36 -7 20 l24 -20 -7 25 c-3 14 19
-24 49 -84 47 -93 55 -117 55 -164z m-4298 101 c7 -6 22 -13 33 -16 14 -3 10
-5 -11 -6 -28 -1 -34 4 -48 39 -19 48 -20 68 -1 24 8 -17 20 -35 27 -41z
m4225 25 c-3 -7 -5 -2 -5 12 0 14 2 19 5 13 2 -7 2 -19 0 -25z m-9507 -23 c-7
-9 -15 -13 -19 -10 -3 3 1 10 9 15 21 14 24 12 10 -5z m4186 -80 c-26 -30 -44
-59 -41 -65 13 -21 301 -241 323 -247 32 -8 40 3 51 67 l10 55 -3 -52 c-2 -28
-11 -64 -22 -81 l-19 -30 -167 134 c-92 74 -172 134 -178 134 -14 0 -13 -23 3
-40 6 -8 0 -4 -15 9 l-27 24 57 73 c31 41 60 74 65 74 5 0 -12 -25 -37 -55z
m5345 -20 c8 -28 8 -29 -6 -11 -8 11 -15 31 -14 45 1 26 3 23 20 -34z m-5196
-23 c20 -18 36 -35 34 -37 -2 -1 -29 20 -59 47 -30 28 -46 44 -34 37 12 -8 38
-29 59 -47z m189 -28 c4 -9 4 -19 1 -22 -3 -3 -5 0 -5 6 0 7 -12 12 -27 13
-25 0 -26 1 -8 9 29 12 32 12 39 -6z m116 -39 c13 -14 19 -25 14 -25 -8 1 -50
50 -41 50 2 0 14 -11 27 -25z m-103 -47 c-2 -13 -4 -5 -4 17 -1 22 1 32 4 23
2 -10 2 -28 0 -40z m160 -102 c11 -22 12 -26 1 -21 -28 17 -58 49 -58 64 0 9
-14 31 -30 50 -17 18 -30 40 -30 49 0 16 94 -97 117 -142z m-681 32 c-83 -129
-104 -167 -122 -223 -12 -39 -13 -39 -13 -9 -1 29 108 222 175 310 48 63 34
35 -40 -78z m453 -173 c5 -26 -9 -145 -18 -145 -9 0 -301 219 -301 227 0 3 15
-6 33 -19 88 -67 255 -188 259 -188 3 0 8 23 11 51 5 39 2 59 -10 80 -9 15
-77 78 -150 139 -73 62 -133 114 -133 117 0 12 305 -246 309 -262z m118 188
c-3 -10 -5 -4 -5 12 0 17 2 24 5 18 2 -7 2 -21 0 -30z m-456 -90 c13 -16 12
-17 -3 -4 -10 7 -18 15 -18 17 0 8 8 3 21 -13z m248 -326 c-105 -95 -112 -99
-204 -108 -65 -7 -94 -6 -118 4 -30 13 -29 13 30 9 34 -2 87 -1 118 3 48 6 64
14 135 72 l80 65 -48 37 c-26 20 -102 78 -169 129 -67 50 -125 97 -129 103 -4
6 76 -51 176 -127 l183 -138 -54 -49z m651 213 c6 -41 31 -151 55 -245 43
-166 66 -273 64 -304 0 -9 -18 58 -40 149 -21 90 -50 200 -64 245 -13 44 -27
115 -31 158 -6 73 -8 78 -28 73 -21 -5 -21 -5 -1 10 25 19 29 10 45 -86z
m-496 56 c-9 -15 -19 -25 -21 -22 -3 2 3 16 13 30 9 15 19 25 21 22 3 -2 -3
-16 -13 -30z m50 -13 c-10 -15 -24 -41 -31 -58 l-11 -30 -1 26 c-1 15 8 38 19
52 11 14 20 33 20 43 0 14 3 15 11 7 9 -9 7 -19 -7 -40z m314 10 c-10 -2 -26
-2 -35 0 -10 3 -2 5 17 5 19 0 27 -2 18 -5z m-1021 -180 c-3 -10 -5 -2 -5 17
0 19 2 27 5 18 2 -10 2 -26 0 -35z m629 -54 c-9 -29 -16 -83 -16 -121 0 -78
-3 -76 110 -81 62 -3 61 -3 -17 -5 -45 -1 -88 1 -97 4 -25 10 -22 132 5 206
27 72 36 70 15 -3z m-637 -23 c-2 -25 -5 -43 -9 -41 -6 4 0 85 7 85 2 0 3 -20
2 -44z m899 -193 c-15 -2 -42 -2 -60 0 -18 2 -6 4 27 4 33 0 48 -2 33 -4z
m-103 -33 c62 -7 58 -7 -28 -4 -54 2 -109 1 -122 -2 -29 -7 -33 -38 -7 -54 15
-9 14 -10 -8 -8 -21 3 -25 9 -28 41 l-3 37 63 -1 c35 -1 95 -5 133 -9z m68
-77 c-24 -2 -62 -2 -85 0 -24 2 -5 4 42 4 47 0 66 -2 43 -4z m-13 -41 c3 -2
-48 -2 -112 0 l-118 4 0 -97 0 -97 38 -49 c52 -64 126 -131 165 -148 28 -13
29 -14 9 -15 -16 0 -56 31 -128 98 l-104 97 0 112 0 113 123 -6 c67 -4 124 -9
127 -12z m437 -59 c-3 -10 -5 -4 -5 12 0 17 2 24 5 18 2 -7 2 -21 0 -30z m10
-65 c-3 -7 -5 -2 -5 12 0 14 2 19 5 13 2 -7 2 -19 0 -25z m-68 -122 l-84 -95
-64 -11 c-35 -6 -65 -9 -68 -7 -2 3 13 8 34 12 77 14 117 40 187 123 38 45 71
80 74 78 2 -3 -33 -48 -79 -100z m-254 -126 c-16 -4 -39 -8 -50 -8 -16 0 -15
2 5 8 14 4 36 8 50 8 22 0 22 -1 -5 -8z m-82 -17 c-7 -2 -19 -2 -25 0 -7 3 -2
5 12 5 14 0 19 -2 13 -5z"/>
</g>
</svg>
