<svg id="Capa_1" enable-background="new 0 0 512 512" height="512" viewBox="0 0 512 512" width="512" xmlns="http://www.w3.org/2000/svg"><g><g><g><g><g><g><g><path d="m336.573 463.989-92.225-92.225-28.769 28.769 92.225 92.225c7.945 7.945 20.825 7.944 28.769 0s7.945-20.825 0-28.769z" fill="#64b9fc"/><path d="m336.575 492.756c-7.95 7.95-20.823 7.95-28.773 0l-22.194-22.194c7.95 7.95 20.823 7.95 28.773 0 7.942-7.942 7.95-20.822 0-28.773l22.194 22.194c7.95 7.95 7.942 20.831 0 28.773z" fill="#31a7fb"/></g><g><path d="m389.283 463.593-118.382-118.382-28.769 28.769 118.382 118.382c7.944 7.944 20.825 7.944 28.769 0 7.945-7.945 7.945-20.825 0-28.769z" fill="#8dcafc"/><path d="m389.285 492.359c-7.95 7.95-20.823 7.95-28.773 0l-22.194-22.194c7.95 7.95 20.823 7.95 28.773 0 7.942-7.942 7.95-20.822 0-28.773l22.194 22.194c7.95 7.951 7.942 20.831 0 28.773z" fill="#64b9fc"/></g><g><path d="m444.371 465.574-146.916-146.916-28.769 28.769 146.916 146.916c7.945 7.945 20.825 7.944 28.769 0 7.945-7.944 7.945-20.824 0-28.769z" fill="#b5dbfd"/><path d="m444.373 494.341c-7.95 7.95-20.823 7.95-28.773 0l-22.194-22.194c7.95 7.95 20.823 7.95 28.773 0 7.942-7.942 7.95-20.822 0-28.773l22.194 22.194c7.951 7.951 7.943 20.831 0 28.773z" fill="#8dcafc"/></g><g><path d="m193.648 401.159c-7.661-7.661-7.661-20.081 0-27.742l63.44-63.44c22.23-22.23 58.4-22.23 80.63-.001l168.535 168.534c7.661 7.661 7.661 20.081 0 27.742s-20.081 7.661-27.742 0l-168.535-168.534c-6.932-6.932-18.212-6.932-25.145.001l-63.44 63.44c-7.662 7.661-20.082 7.661-27.743 0z" fill="#fdf6ed"/></g><g><path d="m506.254 506.254c-7.665 7.665-20.085 7.657-27.742 0l-25.364-25.364c7.657 7.657 20.077 7.665 27.742 0s7.657-20.085 0-27.742l25.364 25.364c7.657 7.657 7.665 20.078 0 27.742z" fill="#f9e1c2"/></g></g><g><g><path d="m48.009 175.425 92.225 92.225-28.769 28.769-92.225-92.224c-7.945-7.945-7.944-20.825 0-28.769 7.945-7.945 20.825-7.945 28.769-.001z" fill="#64b9fc"/></g><g><path d="m48.406 122.715 118.382 118.382-28.769 28.769-118.383-118.382c-7.944-7.944-7.944-20.825 0-28.769 7.945-7.944 20.825-7.944 28.77 0z" fill="#8dcafc"/></g><g><path d="m46.424 67.627 146.916 146.916-28.769 28.769-146.916-146.915c-7.945-7.945-7.944-20.825 0-28.769 7.944-7.945 20.825-7.945 28.769-.001z" fill="#b5dbfd"/></g><g><path d="m110.839 318.35c7.661 7.661 20.081 7.661 27.742 0l63.44-63.44c22.23-22.23 22.23-58.4.001-80.63l-168.534-168.534c-7.661-7.661-20.081-7.661-27.742 0s-7.661 20.081 0 27.742l168.534 168.535c6.932 6.932 6.932 18.212-.001 25.145l-63.44 63.44c-7.66 7.661-7.66 20.081 0 27.742z" fill="#fef0dc"/></g><g><path d="m202.018 254.909-63.443 63.443c-7.657 7.657-20.078 7.665-27.742 0-3.464-3.464-5.358-7.895-5.683-12.436 5.493.404 11.113-1.49 15.306-5.683l63.442-63.442c22.233-22.233 22.226-58.401 0-80.627l18.12 18.12c22.233 22.231 22.233 58.391 0 80.625z" fill="#f9e1c2"/></g></g></g><g><path d="m275.616 317.195c-14.747-14.747-34.474-21.714-54.448-21.063-2.966.097-5.393-2.331-5.297-5.297.651-19.975-6.316-39.701-21.063-54.448-29.496-29.496-78.929-27.893-110.41 3.589-27.512 27.512-49.113 99.39-22.054 183.681 1.645 5.125 3.471 10.297 5.487 15.506.889 2.296 2.713 4.12 5.008 5.008 5.208 2.016 10.38 3.842 15.506 5.487 84.285 27.053 156.163 5.452 183.675-22.06 31.483-31.481 33.092-80.908 3.596-110.403z" fill="#fc5a95"/><path d="m272.026 427.597c-27.512 27.512-99.391 49.112-183.675 22.06-5.127-1.647-10.301-3.474-15.51-5.491-2.296-.889-4.12-2.714-5.008-5.01-2.013-5.204-3.839-10.377-5.486-15.503-.505-1.577-.997-3.142-1.458-4.714 82.24 24.78 151.96 3.47 178.955-23.524 25.499-25.499 31.399-62.76 17.044-91.68 6.796 3.363 13.119 7.844 18.728 13.453 29.5 29.5 27.891 78.927-3.59 110.409z" fill="#fb3a82"/></g></g></g></g><g><path d="m325.982 186.536c-1.977 0-3.955-.755-5.464-2.263-3.017-3.017-3.017-7.909 0-10.927l69.263-69.263c3.018-3.017 7.909-3.017 10.928 0 3.017 3.017 3.017 7.909 0 10.927l-69.263 69.263c-1.509 1.509-3.487 2.263-5.464 2.263z" fill="#fca5cd"/></g><g><path d="m429.264 253.787h-86.667c-4.268 0-7.726-3.459-7.726-7.726s3.459-7.726 7.726-7.726h86.667c4.268 0 7.726 3.459 7.726 7.726s-3.459 7.726-7.726 7.726z" fill="#fca5cd"/></g><g><path d="m258.731 169.921c-4.268 0-7.726-3.459-7.726-7.726v-86.667c0-4.267 3.459-7.726 7.726-7.726s7.726 3.459 7.726 7.726v86.666c.001 4.268-3.458 7.727-7.726 7.727z" fill="#fca5cd"/></g></g></svg>